<?xml version="1.0" encoding="UTF-8"?>
<svg version="1.1" xmlns="http://www.w3.org/2000/svg" width="512" height="512">
<path d="M0 0 C9.03465173 8.15786246 17.38802784 16.73404323 24 27 C27.72207106 25.75930965 28.13114347 24.61055119 30.25 21.375 C51.58683278 -8.66039532 86.08680324 -26.16070611 121.75 -32.3125 C149.75255179 -35.7067487 177.65949776 -31.24260283 203 -19 C203.96752197 -18.5356958 203.96752197 -18.5356958 204.95458984 -18.06201172 C237.26462637 -2.32750568 262.10169332 26.97213667 274.10498047 60.67333984 C282.08503909 84.04566898 285.19651686 113.8996524 278 138 C277.73654785 138.89734863 277.4730957 139.79469727 277.20166016 140.71923828 C273.27993492 153.79378133 268.59990059 166.05910337 262 178 C261.29341685 179.32246074 260.58770347 180.64538653 259.8828125 181.96875 C243.89277815 211.57686792 221.21387382 237.00606998 197.5012207 260.62915039 C195.79976222 262.32519726 194.10378737 264.02659821 192.40820312 265.72851562 C186.77387353 271.36663993 181.08934932 276.84928844 175 282 C173.83158977 283.02144651 172.66490785 284.0448735 171.5 285.0703125 C146.35750663 307.05484597 119.69763127 327.34201352 92 346 C91.29552734 346.47646973 90.59105469 346.95293945 89.86523438 347.44384766 C74.95519223 357.51775191 59.79602874 367.16472455 44.375 376.4375 C43.5701416 376.92154297 42.7652832 377.40558594 41.93603516 377.90429688 C40.39164605 378.82714397 38.84242761 379.74196554 37.28808594 380.64794922 C35.7154971 381.57720626 34.16200025 382.53930507 32.62597656 383.52783203 C26.84603498 387.10134794 26.84603498 387.10134794 23 386.640625 C18.94405062 384.42252768 14.94240847 382.1655259 11 379.75 C10.1335083 379.22422363 9.2670166 378.69844727 8.37426758 378.15673828 C-6.97374064 368.79776144 -22.1514123 359.13447824 -37 349 C-37.8357959 348.43087891 -38.6715918 347.86175781 -39.53271484 347.27539062 C-52.90511164 338.14440679 -65.94210325 328.66304601 -78.7421875 318.74658203 C-80.75948432 317.18605636 -82.78344946 315.6350354 -84.8125 314.08984375 C-99.32527295 303.03011705 -113.2761239 291.27574673 -126.77734375 279.00390625 C-128.80405642 277.17665915 -130.86313276 275.3976411 -132.9375 273.625 C-138.22429772 269.02591581 -143.08142776 263.98474137 -148 259 C-150.7995123 256.186697 -153.61711046 253.3935815 -156.453125 250.6171875 C-162.96252846 244.21870584 -169.25436707 237.83139508 -174.91015625 230.6484375 C-177.12069225 227.84704795 -179.42927853 225.14810268 -181.75 222.4375 C-192.02048163 210.10653294 -201.12061004 196.97419639 -209 183 C-209.33837891 182.4121875 -209.67675781 181.824375 -210.02539062 181.21875 C-228.32950406 149.30029597 -237.36194968 110.80267627 -228.24609375 74.4765625 C-227.83654667 72.98276785 -227.42123948 71.49053969 -227 70 C-226.80164551 69.26104492 -226.60329102 68.52208984 -226.39892578 67.76074219 C-216.54940604 31.85740132 -192.01693687 2.63332175 -160.0625 -15.75 C-109.28471582 -43.89769467 -44.17344153 -37.86445203 0 0 Z " fill="#D7443E" transform="translate(231,79)"/>
</svg>
