<?xml version="1.0" encoding="UTF-8"?>
<svg version="1.1" xmlns="http://www.w3.org/2000/svg" width="512" height="512">
<path d="M0 0 C0.75249023 0.18804199 1.50498047 0.37608398 2.28027344 0.56982422 C30.12032217 7.59974412 51.91174514 21.89039621 73 41 
C76.38546064 39.52507019 78.6511499 37.60434215 81.3125 35.0625 C114.8034827 4.6382788 154.84145939 -4.47705723 199 -3 C204.85610102 -2.59538955 210.32186805 
-1.52072169 216 0 C217.12873535 0.28206299 217.12873535 0.28206299 218.28027344 0.56982422 C241.69249882 6.4816698 263.29541004 17.38509998 280.90625 34.02734375
 C282.73271675 35.74817529 284.60280745 37.31169981 286.5625 38.875 C291.37609224 42.99129617 295.14981364 48.00106952 299 53 C299.80695313 54.0415625 300.61390625 
 55.083125 301.4453125 56.15625 C325.27230585 87.7178808 333.7524523 126.74718218 329.6015625 165.74316406 C326.61399824 185.86900563 319.7794772 204.73821625 311 
 223 C310.64486328 223.7429834 310.28972656 224.4859668 309.92382812 225.25146484 C295.93457496 254.10897505 275.797053 279.88000291 254.265625 303.48828125 
 C252.41730937 305.5373622 250.60989686 307.61076114 248.80737305 309.69970703 C245.28707662 313.72472396 241.60265903 317.54257806 237.81640625 321.31640625 
 C237.15720688 321.97656235 236.49800751 322.63671844 235.8188324 323.31687927 C234.43603165 324.70035506 233.05198924 326.08259083 231.66674805 327.46362305 
 C229.56769657 329.55731669 227.4740406 331.65629874 225.38085938 333.75585938 C224.02636214 335.10969571 222.67155469 336.46322175 221.31640625 337.81640625 C220.70156876 
 338.43326797 220.08673126 339.0501297 219.45326233 339.6856842 C215.67585226 343.4431644 211.7792348 347.01273245 207.74493408 350.49317932 
 C205.52153512 352.41317364 203.35559783 354.3929561 201.1875 356.375 C196.87225424 360.26924618 192.42908245 363.96654724 187.91015625 367.62109375 
 C185.33125 369.7292198 182.79117656 371.87261 180.26098633 374.03833008 C173.98912115 379.40231445 167.55962664 384.51612719 160.97753906 389.49511719 
 C158.70204048 391.22674352 156.44086843 392.97628338 154.1796875 394.7265625 C143.64558257 402.85754702 132.97372416 410.66654488 121.90771484 418.05664062
  C119.08486903 419.94327813 116.26792271 421.83842207 113.45195007 423.73529053 C110.76590346 425.54334204 108.0771524 427.34734044 105.38766479 429.15026855
   C104.0622881 430.03909148 102.73750414 430.928799 101.4133606 431.81945801 C80.72676408 445.72116637 80.72676408 445.72116637 74.5625 445.625 C73.73878906 
   445.63789063 72.91507813 445.65078125 72.06640625 445.6640625 C62.44822065 443.58114333 54.13178216 436.98551723 46.125 431.5625 C44.92789652 430.75724588 
   43.73062857 429.95223621 42.53320312 429.14746094 C20.59977804 414.37626467 -0.95562965 399.16174222 -21.36669922 382.33349609 C-23.44228883 380.63889662 
   -25.55844574 379.00173656 -27.6875 377.375 C-33.0358186 373.25233775 -38.14997592 368.85226932 -43.28076172 364.46484375 C-44.96331146 363.03125976 -46.65429209 
   361.60828348 -48.34765625 360.1875 C-62.79761057 348.01592702 -76.25528648 334.8336753 -89.625 321.5 C-90.1881189 320.93955994 -90.75123779 320.37911987 -91.3314209 
   319.80169678 C-97.43992858 313.71527127 -103.42608694 307.58701567 -109 301 C-109.9488337 299.916489 -110.89930502 298.83440945 -111.8515625 297.75390625 C-119.65153251 288.81105294 -126.9184742 279.51924015 -134 270 C-134.45117188 269.39687988 -134.90234375 268.79375977 -135.3671875 268.17236328 C-166.94136271 225.77446513 -189.01777971 174.34461884 -181.23120117 120.56103516 C-180.63645662 117.32846197 -179.85016017 114.17436229 -179 111 C-178.81195801 110.24750977 -178.62391602 109.49501953 -178.43017578 108.71972656 C-173.84503018 90.56152863 -166.29473256 73.02130419 -155 58 C-154.06607422 56.75283203 -154.06607422 56.75283203 -153.11328125 55.48046875 C-144.80167773 44.77485366 -135.85462474 35.14840323 -125 27 C-123.55753906 25.90945312 -123.55753906 25.90945312 -122.0859375 24.796875 C-88.10671556 0.19419785 -41.11189823 -11.0106204 0 0 Z M107 57 C106.19175781 57.66386719 105.38351562 58.32773438 104.55078125 59.01171875 C98.85971159 63.84510758 94.30482712 69.11246582 89.92993164 75.12744141 C86.16089367 80.20183261 82.43153585 83.4117252 76.125 84.9375 C71.56369266 85.26765177 67.89769249 84.40948263 64 82 C61.35102283 79.56643416 59.18874726 76.84777665 57 74 C52.07748907 67.63554142 47.29205497 62.03150745 41 57 C40.06542969 56.21753906 39.13085938 55.43507813 38.16796875 54.62890625 C12.97196255 33.972864 -18.57503416 27.45738262 -50.52587891 30.21826172 C-54.79512925 30.77811501 -58.87512178 31.7850715 -63 33 C-64.20914063 33.3403125 -65.41828125 33.680625 -66.6640625 34.03125 C-96.53154756 43.18319159 -121.49420872 63.10731734 -136.24584961 90.77661133 C-144.9804878 107.94220347 -149.40325211 125.22223625 -149.375 144.5 C-149.37412384 145.15885193 -149.37324768 145.81770386 -149.37234497 146.496521 C-149.32305932 157.77696681 -148.27124611 168.1959061 -145 179 C-144.65388672 180.1763501 -144.65388672 180.1763501 -144.30078125 181.37646484 C-135.97238861 208.98905235 -120.64249741 233.43416781 -103 256 C-102.30390625 256.89847656 -101.6078125 257.79695312 -100.890625 258.72265625 C-87.74614266 275.42483939 -73.24271891 290.84050429 -58.25 305.875 C-57.43458237 306.69443588 -57.43458237 306.69443588 -56.60269165 307.53042603 C-50.58168657 313.5739022 -44.49919446 319.46635618 -38 325 C-36.39231627 326.45445517 -34.78760285 327.91220895 -33.1875 329.375 C-28.87225424 333.26924618 -24.42908245 336.96654724 -19.91015625 340.62109375 C-17.33116035 342.72929309 -14.7909932 344.87274687 -12.26074219 347.03857422 C-5.97545054 352.41390573 0.45665222 357.55869265 7.06103516 362.53808594 C8.45806958 363.59140275 9.85336745 364.6470242 11.24755859 365.70410156 C21.82976731 373.72668384 32.45683691 381.67284461 43.39697266 389.20263672 C45.365424 390.56183188 47.32780749 391.92831258 49.28662109 393.30126953 C52.31668834 395.42289206 55.36084779 397.52299327
    58.4135437 399.61190796 C59.63217073 400.45006463 60.84653826 401.29445026 62.056427 402.14517212 C63.76053262 403.34111982 65.47919377 404.51256874 67.203125 405.6796875 C68.19989258 406.36788574 69.19666016 407.05608398 70.22363281 407.76513672 C72.90252369 409.28977523 72.90252369 409.28977523 75.53442383 408.41650391 C78.16795831 406.90350588 80.72190989 405.34680666 83.24609375 403.65625 C84.2410083 402.99222168 85.23592285 402.32819336 86.26098633 401.64404297 C87.30923584 400.93650879 88.35748535 400.22897461 89.4375 399.5 C90.51990967 398.77312988 91.60231934 398.04625977 92.7175293 397.29736328 C99.95460205 392.4213252 107.13941532 387.49198151 114.17871094 382.33398438 C116.29446319 380.78432348 118.4171111 379.24428556 120.5390625 377.703125 C129.33725395 371.28939916 137.98160437 364.733518 146.4375 357.875 C149.43238416 355.44618186 152.46616051 353.0721179 155.51318359 350.70922852 C161.06736887 346.39776393 166.39108175 341.9510109 171.56640625 337.18359375 C174.18167273 334.83699028 176.8847429 332.63647175 179.625 330.4375 C183.62428295 327.20319944 187.31601589 323.84729004 190.85546875 320.1171875 C192.66965045 318.32613744 194.51643602 316.68866083 196.453125 315.03515625 C201.84644712 310.3512687 206.86175679 305.28797268 211.90014648 300.23022461 C213.5592732 298.56573723 215.22368051 296.90666553 216.88867188 295.24804688 C222.47010916 289.67041425 227.89055081 284.01750113 233 278 C234.03264892 276.83111344 235.06779223 275.66442561 236.10546875 274.5 C261.46757582 245.80130897 284.00701024 212.33214425 294 175 C294.3403125 173.76894531 294.680625 172.53789062 295.03125 171.26953125 C299.42374453 152.29639515 298.95509221 130.56802315 293 112 C292.79101074 111.32759277 292.58202148 110.65518555 292.36669922 109.96240234 C287.65464879 95.18385917 280.24660246 81.66198918 270 70 C269.33742188 69.19433594 268.67484375 68.38867188 267.9921875 67.55859375 C248.82153922 44.95703609 219.68206871 31.8368029 190.46240234 29.34399414 C160.29208001 27.26852981 129.85953138 37.17324227 107 57 Z " 
    fill="#fff" transform="translate(182,35)"/>
</svg>
