<?xml version="1.0" encoding="UTF-8"?>
<svg version="1.1" xmlns="http://www.w3.org/2000/svg" width="512" height="512">
<path d="M0 0 C52.35185377 -0.97372157 102.90053791 17.6003972 141.39453125 53.0703125 C143.49577869 54.99553921 145.64600556 56.84187678 147.8203125 58.68359375 C151.8295454 62.19864685 155.24268042 66.01243657 158.6328125 70.12109375 C159.05546387 70.6207666 159.47811523 71.12043945 159.91357422 71.63525391 C188.01745449 104.92363001 207.42554 148.82521901 207.87109375 192.87109375 C207.8808876 193.67870651 207.89068146 194.48631927 207.90077209 195.31840515 C208.39399594 246.56120168 194.45686943 289.52577187 164.6328125 331.12109375 C169.71581851 337.3517858 175.38353274 342.93324682 181.11494637 348.55613136 C183.50156832 350.90020638 185.87847909 353.25403016 188.2560873 355.60724163 C192.66732861 359.97301363 197.08229956 364.33483418 201.51391602 368.67993164 C204.6116956 371.71797589 207.69682365 374.76838767 210.77422905 377.82706261 C211.94056514 378.98174199 213.11139748 380.13189978 214.28697395 381.27717018 C229.35747182 395.96873424 229.35747182 395.96873424 230.2578125 407.12109375 C229.90843439 412.81864452 228.04934545 417.55786239 224.6328125 422.12109375 C218.76759351 427.18510944 213.24508453 429.64903833 205.4781189 429.41947937 C193.97250246 428.21289209 186.13382796 418.26920427 178.53125 410.5078125 C177.2014284 409.16864979 175.8704869 407.83059833 174.53848267 406.49360657 C171.05857762 402.99473421 167.5939608 399.48110514 164.13244629 395.96405029 C160.58839648 392.3685858 157.0299092 388.78747178 153.47265625 385.20507812 C146.5119388 378.19095442 139.56730806 371.1611361 132.6328125 364.12109375 C130.9763269 365.05574463 130.9763269 365.05574463 129.28637695 366.00927734 C128.66519485 366.35977142 128.04401276 366.7102655 127.40400696 367.07138062 C125.0653182 368.45742397 122.96328746 370.07578159 120.8203125 371.74609375 C113.22132866 377.34369913 104.98148298 381.74983838 96.6328125 386.12109375 C96.00922852 386.44996582 95.38564453 386.77883789 94.74316406 387.11767578 C77.73219507 395.95374546 58.52183127 401.97916537 39.6328125 405.12109375 C38.58287109 405.29624512 37.53292969 405.47139648 36.45117188 405.65185547 C26.03210226 407.22087442 15.77796455 407.52076525 5.2578125 407.49609375 C4.38152191 407.49554993 3.50523132 407.4950061 2.60238647 407.4944458 C-19.60799692 407.43130435 -40.25317588 404.05577122 -61.3671875 397.12109375 C-62.42292969 396.77739746 -62.42292969 396.77739746 -63.5 396.42675781 C-89.1377065 387.901478 -112.29222335 373.47057524 -132.09375 355.20703125 C-134.2061299 353.26886825 -136.36716822 351.41086104 -138.5546875 349.55859375 C-142.56352833 346.04388439 -145.9797751 342.23158841 -149.3671875 338.12109375 C-150.00914062 337.35563232 -150.00914062 337.35563232 -150.6640625 336.57470703 C-158.73203889 326.93026135 -165.88220132 316.89495525 -172.3671875 306.12109375 C-172.73295898 305.51362305 -173.09873047 304.90615234 -173.47558594 304.28027344 C-200.00261148 259.37114006 -205.40029309 203.28502572 -193.16503906 153.17529297 C-185.76782852 124.85855372 -173.0644957 98.6948402 -154.3671875 76.12109375 C-153.88604492 75.5384375 -153.40490234 74.95578125 -152.90917969 74.35546875 C-143.60738556 63.15742464 -133.88770656 53.08642076 -122.3671875 44.12109375 C-121.83416016 43.70102051 -121.30113281 43.28094727 -120.75195312 42.84814453 C-86.0825226 15.69847725 -43.80261805 1.57526817 0 0 Z M-106.3671875 90.12109375 C-107.55828125 91.21744141 -107.55828125 91.21744141 -108.7734375 92.3359375 C-120.79657966 103.76933693 -129.82932287 117.4300249 -137.3671875 132.12109375 C-137.84430176 133.03858398 -137.84430176 133.03858398 -138.33105469 133.97460938 C-157.37633506 171.03031685 -159.32306347 214.51488062 -147.09765625 254.0078125 C-134.45402487 292.60992076 -106.48405403 326.53639892 -70.3828125 345.35522461 C-53.05218987 354.08980804 -34.69955385 360.71155244 -15.3671875 363.12109375 C-14.53960937 363.23195313 -13.71203125 363.3428125 -12.859375 363.45703125 C27.50862404 368.02466417 69.9266696 356.43868631 102.01708984 331.42578125 C106.25698442 328.0020888 110.24708004 324.33133729 114.16064453 320.54199219 C115.646656 319.10773236 117.15241333 317.69651599 118.66015625 316.28515625 C145.55064023 290.7208375 163.49698907 251.30696506 164.6328125 214.12109375 C164.65327637 213.45319824 164.67374023 212.78530273 164.69482422 212.09716797 C165.888302 166.41951849 149.641769 125.21091761 118.3984375 91.9921875 C91.39215602 63.95600545 52.3922035 46.05016915 13.3515625 44.8828125 C-32.28463152 44.17237345 -73.1355404 58.31203429 -106.3671875 90.12109375 Z " 
fill="#fff" transform="translate(240.3671875,40.87890625)"/>
</svg>
