<?xml version="1.0" encoding="UTF-8"?>
<svg version="1.1" xmlns="http://www.w3.org/2000/svg" width="512" height="512">
<path d="M0 0 C4.64695104 2.9462185 7.99720765 7.28861137 10.11328125 12.33984375 C10.36809027 14.9974916 10.36809027 14.9974916 10.37499428 18.09508896 C10.38245977 19.27695746 10.38992526 20.45882596 10.39761698 21.67650867 C10.39471488 23.62590598 10.39471488 23.62590598 10.39175415 25.61468506 C10.39675599 27.00819831 10.40263146 28.40170865 10.40930688 29.79521489 C10.42513445 33.62852269 10.42853907 37.46175725 10.42995548 41.29509377 C10.43364473 45.42732606 10.44879781 49.55951793 10.46257019 53.69172668 C10.48486181 60.85241016 10.49986365 68.0130793 10.50993729 75.17378998 C10.52451264 85.52701567 10.55004623 95.88019143 10.57826857 106.23338786 C10.62375739 123.03009041 10.66036355 139.82680015 10.69140625 156.62353516 C10.72158324 172.94158184 10.75592959 189.25961095 10.79589844 205.57763672 C10.79959076 207.08598664 10.79959076 207.08598664 10.80335768 208.62480828 C10.81573211 213.66935793 10.82818868 218.71390737 10.84068608 223.75845671 C10.94428516 265.61889461 11.03347809 307.47935415 11.11328125 349.33984375 C11.97248169 348.47176086 12.83168213 347.60367798 13.71691895 346.70928955 C21.82718085 338.51783591 29.94806387 330.33704457 38.07938385 322.16649246 C42.25913948 317.96588898 46.43510348 313.76165749 50.60253906 309.54882812 C54.62672227 305.4810888 58.66068285 301.42328397 62.70152283 297.3720932 C64.23915154 295.82709077 65.77326346 294.27857985 67.3037262 292.72647858 C69.4529591 290.54808358 71.61451704 288.38265755 73.77929688 286.21972656 C74.40508636 285.57955597 75.03087585 284.93938538 75.67562866 284.27981567 C80.58218519 279.41822582 85.58179399 275.85300037 92.52734375 274.84375 C100.13127626 274.98250789 104.77260703 275.55594856 110.73828125 280.52734375 C115.82955096 286.55647893 117.54935515 291.53397758 117.64453125 299.43359375 C115.90127191 308.97024778 109.08232884 314.94883693 102.50488281 321.48168945 C101.41301786 322.5806212 100.32199605 323.68039121 99.23175049 324.78092957 C96.2822543 327.75284081 93.32026376 330.7119894 90.35509968 333.66825891 C87.87611565 336.14211765 85.40337924 338.6221743 82.93059897 341.10223168 C77.09588319 346.95392056 71.25098873 352.7953001 65.39941406 358.63012695 C59.37137548 364.64123494 53.35991481 370.6685585 47.35650659 376.70425731 C42.1917696 381.89571433 37.01735174 387.07737785 31.83499885 392.25124997 C28.74413473 395.33719345 25.65692052 398.42656874 22.57880402 401.52523232 C19.6843193 404.43811264 16.77787442 407.33851234 13.86193085 410.22990608 C12.79664573 411.29019627 11.73555928 412.35472506 10.67913818 413.4238472 C4.01728105 420.15940088 -1.03066709 424.67867663 -10.76171875 425.77734375 C-21.81372576 425.19796064 -28.82308511 418.26048376 -36.16381836 410.79150391 C-37.25274655 409.70580021 -38.34297371 408.62139804 -39.43438721 407.53819275 C-42.37542203 404.61161234 -45.29750463 401.66677168 -48.21599269 398.71772814 C-51.28092483 395.62631371 -54.36179666 392.55085765 -57.44056702 389.47323608 C-62.60421469 384.30678545 -67.75614996 379.12888803 -72.90063477 373.94335938 C-78.84263637 367.95412612 -84.80022869 361.98077371 -90.76698869 356.01621211 C-97.13193528 349.65329366 -103.48539924 343.27900389 -109.83554387 336.90131712 C-111.66160363 335.06887371 -113.48977698 333.23856192 -115.31843376 331.40871048 C-118.19267258 328.53145204 -121.05911732 325.64664179 -123.91976929 322.75587654 C-124.96892622 321.69797956 -126.02060805 320.64257958 -127.07501411 319.58991432 C-128.51671941 318.14968868 -129.94823737 316.69928691 -131.3792572 315.2484436 C-132.18205581 314.44061747 -132.98485441 313.63279133 -133.81198025 312.80048561 C-138.24839676 307.53889135 -140.06119161 302.13338073 -139.88671875 295.33984375 C-138.65342043 288.03915818 -136.24009283 282.579564 -130.20703125 278.08984375 C-124.54578894 274.70719274 -118.31929697 274.24630545 -111.88671875 275.33984375 C-105.58969119 277.73979013 -101.21031153 281.45511485 -96.55273438 286.21972656 C-95.86881622 286.90306061 -95.18489807 287.58639465 -94.48025513 288.29043579 C-92.24153588 290.53192242 -90.01728862 292.7872002 -87.79296875 295.04296875 C-86.23586228 296.60754234 -84.67786525 298.17123008 -83.11901855 299.73406982 C-79.03310637 303.83520097 -74.95935348 307.94820427 -70.88806152 312.06384277 C-66.72565504 316.2672822 -62.55179838 320.45931818 -58.37890625 324.65234375 C-50.20363133 332.87042365 -42.04116342 341.10109813 -33.88671875 349.33984375 C-33.88582312 348.27795169 -33.88582312 348.27795169 -33.88490939 347.19460726 C-33.84901912 305.2413996 -33.7923858 263.28826463 -33.7087978 221.33512357 C-33.69878028 216.2982858 -33.68893616 211.2614477 -33.67919922 206.22460938 C-33.67628716 204.72048726 -33.67628716 204.72048726 -33.67331627 203.18597883 C-33.64229121 186.9474722 -33.6253142 170.70897971 -33.61352453 154.47044903 C-33.6011156 137.80946722 -33.57362001 121.14855961 -33.53210568 104.48762465 C-33.50696293 94.20608825 -33.49360204 83.92467493 -33.49528918 73.64310735 C-33.49531892 66.59361512 -33.48070058 59.54424829 -33.45455447 52.49480492 C-33.43989999 48.42700019 -33.43171282 44.35945262 -33.44091606 40.29162598 C-33.44920359 36.56549146 -33.43904705 32.83987362 -33.41438213 29.11381572 C-33.40601188 27.13144225 -33.41723639 25.14901573 -33.4292171 23.16666079 C-33.34597247 14.53976067 -32.36185263 8.89395795 -26.13671875 2.52734375 C-17.61977045 -3.20521761 -9.39712202 -4.56060671 0 0 Z " fill="#fff" transform="translate(373.88671875,44.66015625)"/>
<path d="M0 0 C4.05715143 3.22537291 7.65097757 6.85886748 11.27709961 10.54833984 C12.3660278 11.63404354 13.45625496 12.71844571 14.54766846 13.801651 C17.48870328 16.72823141 20.41078588 19.67307207 23.32927394 22.62211561 C26.39420608 25.71353004 29.47507791 28.7889861 32.55384827 31.86660767 C37.71749594 37.0330583 42.86943121 42.21095572 48.01391602 47.39648438 C53.95591762 53.38571763 59.91350994 59.35907004 65.88026994 65.32363164 C72.24521653 71.68655009 78.59868049 78.06083986 84.94882512 84.43852663 C86.77488488 86.27097004 88.60305823 88.10128183 90.43171501 89.93113327 C93.30595383 92.80839171 96.17239857 95.69320196 99.03305054 98.58396721 C100.08220747 99.64186419 101.1338893 100.69726417 102.18829536 101.74992943 C103.63000066 103.19015507 105.06151862 104.64055684 106.49253845 106.09140015 C107.29533706 106.89922628 108.09813566 107.70705242 108.9252615 108.53935814 C113.36167801 113.8009524 115.17447286 119.20646302 115 126 C113.76670168 133.30068557 111.35337408 138.76027975 105.3203125 143.25 C99.65907019 146.63265101 93.43257822 147.0935383 87 146 C80.70297244 143.60005362 76.32359278 139.8847289 71.66601562 135.12011719 C70.6401384 134.09511612 70.6401384 134.09511612 69.59353638 133.04940796 C67.35481713 130.80792133 65.13056987 128.55264355 62.90625 126.296875 C61.34914353 124.73230141 59.7911465 123.16861367 58.2322998 121.60577393 C54.14638762 117.50464278 50.07263473 113.39163948 46.00134277 109.27600098 C41.83893629 105.07256155 37.66507963 100.88052557 33.4921875 96.6875 C25.31691258 88.4694201 17.15444467 80.23874562 9 72 C8.99910437 73.06189206 8.99910437 73.06189206 8.99819064 74.14523649 C8.96230037 116.09844415 8.90566705 158.05157912 8.82207905 200.00472018 C8.81206153 205.04155795 8.80221741 210.07839605 8.79248047 215.11523438 C8.78956841 216.61935649 8.78956841 216.61935649 8.78659752 218.15386492 C8.75557246 234.39237155 8.73859545 250.63086404 8.72680578 266.86939472 C8.71439685 283.53037653 8.68690126 300.19128414 8.64538693 316.8522191 C8.62024418 327.1337555 8.60688329 337.41516882 8.60857043 347.6967364 C8.60860017 354.74622863 8.59398183 361.79559546 8.56783572 368.84503883 C8.55318124 372.91284356 8.54499407 376.98039113 8.55419731 381.04821777 C8.56248484 384.77435229 8.5523283 388.49997013 8.52766338 392.22602803 C8.51929313 394.2084015 8.53051764 396.19082802 8.54249835 398.17318296 C8.45925372 406.80008308 7.47513388 412.4458858 1.25 418.8125 C-4.6879721 422.80921199 -10.71167065 425.20785872 -18 424 C-25.49191973 421.85580491 -30.07210938 417.84693228 -34.05810583 411.2483747 C-35.23150608 408.44737696 -35.25494485 406.28141166 -35.26171303 403.24475479 C-35.26917852 402.06288629 -35.27664401 400.88101779 -35.28433573 399.66333508 C-35.28143363 397.71393777 -35.28143363 397.71393777 -35.2784729 395.72515869 C-35.28347474 394.33164544 -35.28935021 392.9381351 -35.29602563 391.54462886 C-35.3118532 387.71132106 -35.31525782 383.8780865 -35.31667423 380.04474998 C-35.32036348 375.91251769 -35.33551656 371.78032582 -35.34928894 367.64811707 C-35.37158056 360.48743359 -35.3865824 353.32676445 -35.39665604 346.16605377 C-35.41123139 335.81282808 -35.43676498 325.45965232 -35.46498732 315.10645589 C-35.51047614 298.30975334 -35.5470823 281.5130436 -35.578125 264.71630859 C-35.60830199 248.39826191 -35.64264834 232.0802328 -35.68261719 215.76220703 C-35.68507874 214.75664042 -35.68754028 213.7510738 -35.69007643 212.71503547 C-35.70245086 207.67048582 -35.71490743 202.62593638 -35.72740483 197.58138704 C-35.83100391 155.72094914 -35.92019684 113.8604896 -36 72 C-36.85920044 72.86808289 -37.71840088 73.73616577 -38.6036377 74.6305542 C-46.7138996 82.82200784 -54.83478262 91.00279918 -62.9661026 99.17335129 C-67.14585823 103.37395477 -71.32182223 107.57818626 -75.48925781 111.79101562 C-79.51344102 115.85875495 -83.5474016 119.91655978 -87.58824158 123.96775055 C-89.12587029 125.51275298 -90.65998221 127.0612639 -92.19044495 128.61336517 C-94.33967785 130.79176017 -96.50123579 132.9571862 -98.66601562 135.12011719 C-99.29180511 135.76028778 -99.9175946 136.40045837 -100.56234741 137.06002808 C-105.45033593 141.90322008 -110.44554837 145.43527404 -117.34375 146.53125 C-129.86989242 146.40722879 -129.86989242 146.40722879 -135 142 C-139.41182355 136.64002138 -142.12434782 131.8335472 -142.3125 124.8125 C-142.34988281 123.91144531 -142.38726562 123.01039063 -142.42578125 122.08203125 C-141.09450397 112.44553791 -133.94721429 106.36932155 -127.39160156 99.8581543 C-126.29973661 98.75922255 -125.2087148 97.65945254 -124.11846924 96.55891418 C-121.16897305 93.58700294 -118.20698251 90.62785435 -115.24181843 87.67158484 C-112.7628344 85.1977261 -110.29009799 82.71766945 -107.81731772 80.23761207 C-101.98260194 74.38592319 -96.13770748 68.54454365 -90.28613281 62.7097168 C-84.25809423 56.69860881 -78.24663356 50.67128525 -72.24322534 44.63558644 C-67.07848835 39.44412942 -61.90407049 34.2624659 -56.7217176 29.08859378 C-53.63085348 26.0026503 -50.54363927 22.91327501 -47.46552277 19.81461143 C-44.57103805 16.90173111 -41.66459317 14.00133141 -38.7486496 11.10993767 C-37.68336448 10.04964748 -36.62227803 8.98511869 -35.56585693 7.91599655 C-24.75138834 -3.01810669 -14.42279193 -7.90373774 0 0 Z " fill="#fff" transform="translate(163,46)"/>
</svg>
