<?xml version="1.0" encoding="UTF-8"?>
<svg version="1.1" xmlns="http://www.w3.org/2000/svg" width="470" height="415">
<path d="M0 0 C1.23737915 0.00323273 1.23737915 0.00323273 2.49975586 0.00653076 C14.55022464 0.05714577 26.25718667 0.35539658 38 3.3125 C38.85964355 3.52712891 39.71928711 3.74175781 40.60498047 3.96289062 C51.04116421 6.63779597 61.24504309 9.68898905 71 14.3125 C71.57959473 14.57724121 72.15918945 14.84198242 72.75634766 15.11474609 C93.08231792 24.43410096 110.26816425 37.55946567 126.125 53.1875 C126.65778564 53.71077881 127.19057129 54.23405762 127.73950195 54.77319336 C130.20017942 57.25523706 132.34231937 59.69283223 134.2421875 62.6328125 C135.7266719 65.38524535 135.7266719 65.38524535 138 66.3125 C138 67.3025 138 68.2925 138 69.3125 C138.66 69.3125 139.32 69.3125 140 69.3125 C141.48046875 71.33203125 141.48046875 71.33203125 143.1875 74.125 C145.87027814 78.50431678 145.87027814 78.50431678 148.69921875 82.7890625 C163.06093988 103.87970191 170.53682198 130.15001169 173 155.3125 C173.11287354 156.4247998 173.11287354 156.4247998 173.22802734 157.55957031 C176.54334304 192.84975196 168.08449457 226.15818692 152 257.3125 C151.67 257.9725 151.34 258.6325 151 259.3125 C150.34 259.3125 149.68 259.3125 149 259.3125 C148.896875 259.86808594 148.79375 260.42367188 148.6875 260.99609375 C146.24317445 269.23180425 139.44419856 276.45828527 134.015625 282.90234375 C131.99915748 285.24808198 131.99915748 285.24808198 130.359375 287.62890625 C129.68648438 288.46228516 129.68648438 288.46228516 129 289.3125 C128.34 289.3125 127.68 289.3125 127 289.3125 C126.67 290.3025 126.34 291.2925 126 292.3125 C125.34 292.3125 124.68 292.3125 124 292.3125 C123.67 293.3025 123.34 294.2925 123 295.3125 C122.34 295.3125 121.68 295.3125 121 295.3125 C121 295.9725 121 296.6325 121 297.3125 C118.54010146 299.85921849 115.71033992 302.03782523 113 304.3125 C112.09378906 305.10527344 111.18757813 305.89804687 110.25390625 306.71484375 C92.15677966 322.3125 92.15677966 322.3125 85 322.3125 C85 322.9725 85 323.6325 85 324.3125 C55.17087934 339.95263353 24.46334207 345.93138252 -9 345.3125 C-10.22203125 345.29574219 -11.4440625 345.27898437 -12.703125 345.26171875 C-31.42634396 344.5270633 -49.81900753 339.60198144 -67 332.3125 C-67.7223584 332.00973145 -68.4447168 331.70696289 -69.18896484 331.39501953 C-83.68148942 325.22499949 -96.63317935 316.88028435 -109.0625 307.25 C-109.66473389 306.78489014 -110.26696777 306.31978027 -110.88745117 305.84057617 C-112.29989592 304.71484787 -113.65652908 303.51970763 -115 302.3125 C-115 301.6525 -115 300.9925 -115 300.3125 C-115.58265625 300.0546875 -116.1653125 299.796875 -116.765625 299.53125 C-119.1802903 298.21415983 -120.81740177 296.76161616 -122.75 294.8125 C-123.36359375 294.2040625 -123.9771875 293.595625 -124.609375 292.96875 C-126 291.3125 -126 291.3125 -126 289.3125 C-126.66 289.3125 -127.32 289.3125 -128 289.3125 C-129.77554124 287.28807948 -131.42796108 285.25945327 -133.0625 283.125 C-133.55274658 282.49078125 -134.04299316 281.8565625 -134.5480957 281.203125 C-150.17496564 260.82311378 -160.73214576 240.41402854 -167.37548828 215.5847168 C-167.89436168 213.69685333 -168.47470533 211.82601395 -169.0703125 209.9609375 C-179.64443084 168.46418739 -170.88464243 121.45154665 -149.24609375 84.95703125 C-146.00003693 79.62795843 -142.54904249 74.44456863 -139 69.3125 C-138.01 67.8275 -138.01 67.8275 -137 66.3125 C-136.34 66.3125 -135.68 66.3125 -135 66.3125 C-134.76023438 65.75433594 -134.52046875 65.19617188 -134.2734375 64.62109375 C-132.72295913 61.81025719 -130.80718126 59.7275509 -128.625 57.375 C-126.32745405 54.88919359 -124.09731748 52.43808955 -122.0234375 49.76171875 C-118.30688969 45.26311744 -113.57389549 41.89998414 -109 38.3125 C-108.06800781 37.57644531 -107.13601562 36.84039062 -106.17578125 36.08203125 C-83.20265915 18.3742359 -57.64717079 6.96872994 -29 2.3125 C-28.2457373 2.14403564 -27.49147461 1.97557129 -26.71435547 1.80200195 C-17.83711699 -0.09712139 -9.03457614 -0.0422071 0 0 Z " fill="#4885EE" transform="translate(308,29.6875)"/>
<path d="M0 0 C6.56908069 4.35392557 11.27950844 10.00212652 12.9375 17.8125 C13.87856271 25.55012671 12.88357077 32.07197638 8.9375 38.8125 C7.42113119 40.64498729 5.84114738 42.42563191 4.22094727 44.16699219 C3.74271043 44.68106503 3.26447359 45.19513786 2.77174473 45.72478867 C-3.76264286 52.69766586 -10.53052871 59.44490399 -17.28515625 66.203125 C-18.72203013 67.64321967 -20.15883199 69.08338619 -21.5955658 70.52362061 C-24.57977482 73.51376543 -27.56598993 76.50188981 -30.5534668 79.48876953 C-34.38861933 83.32381937 -38.21678215 87.16576858 -42.04332829 91.00940323 C-44.99520025 93.97234869 -47.95156017 96.93078375 -50.90923882 99.88793182 C-52.3242995 101.30417448 -53.7377345 102.72204337 -55.14952278 104.14154816 C-57.10940421 106.1111589 -59.07543627 108.0744144 -61.04321289 110.03613281 C-61.62653885 110.62507828 -62.20986481 111.21402374 -62.81086731 111.82081604 C-66.83416714 115.8125 -66.83416714 115.8125 -69.0625 115.8125 C-69.42504883 116.66183105 -69.42504883 116.66183105 -69.79492188 117.52832031 C-71.31345817 120.2647274 -73.13401881 122.14319338 -75.34375 124.359375 C-76.60638672 125.62587891 -76.60638672 125.62587891 -77.89453125 126.91796875 C-78.77496094 127.79066406 -79.65539062 128.66335938 -80.5625 129.5625 C-81.44292969 130.45066406 -82.32335937 131.33882812 -83.23046875 132.25390625 C-84.49310547 133.51267578 -84.49310547 133.51267578 -85.78125 134.796875 C-86.55404297 135.56741211 -87.32683594 136.33794922 -88.12304688 137.13183594 C-90.0625 138.8125 -90.0625 138.8125 -92.0625 138.8125 C-92.0625 139.4725 -92.0625 140.1325 -92.0625 140.8125 C-92.7225 140.8125 -93.3825 140.8125 -94.0625 140.8125 C-94.32417969 141.40160156 -94.58585937 141.99070312 -94.85546875 142.59765625 C-96.1267275 144.93035434 -97.46480531 146.41604368 -99.375 148.25 C-99.99890625 148.85585938 -100.6228125 149.46171875 -101.265625 150.0859375 C-101.85859375 150.65570313 -102.4515625 151.22546875 -103.0625 151.8125 C-103.908125 152.658125 -104.75375 153.50375 -105.625 154.375 C-106.8315625 155.5815625 -106.8315625 155.5815625 -108.0625 156.8125 C-108.83980469 157.62460937 -108.83980469 157.62460937 -109.6328125 158.453125 C-111.07314719 159.94216666 -112.56470318 161.38127193 -114.0625 162.8125 C-114.7225 162.8125 -115.3825 162.8125 -116.0625 162.8125 C-116.31644531 163.40933594 -116.57039063 164.00617188 -116.83203125 164.62109375 C-119.98248534 170.23190247 -127.1126299 174.02753897 -133.0625 175.8125 C-142.12096683 176.85326002 -149.93997648 175.65882389 -157.3203125 170.1171875 C-163.36608981 164.60682959 -166.49846913 158.69489218 -167.4375 150.56640625 C-167.86263962 139.07435079 -164.18046399 133.8655078 -156.6811657 125.61943436 C-152.09944299 120.70830923 -147.35749914 115.95966838 -142.60766602 111.21240234 C-141.4862485 110.08798495 -140.36503351 108.96336554 -139.2440033 107.83856201 C-136.23037246 104.81618333 -133.2135878 101.79697268 -130.19590116 98.77864408 C-128.30928538 96.89131393 -126.42338485 95.00327207 -124.53773308 93.11497879 C-117.95678776 86.52481927 -111.37330265 79.9372096 -104.78735352 73.35205078 C-98.6483699 67.21367085 -92.51501916 61.06970157 -86.38420731 54.92316091 C-81.11116026 49.63706792 -75.83429525 44.35480719 -70.55440086 39.07555354 C-67.40433805 35.92574606 -64.25585845 32.77439434 -61.11120796 29.61918259 C-58.16314273 26.66148301 -55.21037777 23.70855988 -52.25383949 20.75933075 C-51.16766816 19.67421024 -50.08321844 18.58736343 -49.00058365 17.49871445 C-47.52838308 16.01886274 -46.05022708 14.54523622 -44.57032776 13.0730896 C-43.74318551 12.24540258 -42.91604326 11.41771557 -42.0638361 10.56494713 C-40.0625 8.8125 -40.0625 8.8125 -38.0625 8.8125 C-37.80726563 8.21566406 -37.55203125 7.61882812 -37.2890625 7.00390625 C-34.26586584 1.60258993 -27.87682503 -1.81924818 -22.1328125 -3.72265625 C-14.28770428 -5.48410508 -6.92407051 -3.98658605 0 0 Z " fill="#FBFCFD" transform="translate(413.0625,128.1875)"/>
<path d="M0 0 C13.25288354 0.09989219 19.42770387 2.9561703 29.08203125 12.17578125 C36.1851016 19.63774357 37.52051966 27.13850873 37.41552734 37.23876953 C36.97869181 48.64205307 32.07122595 55.42932329 24 63.1875 C16.75170896 69.49534821 8.54659544 71.95851042 -1.01953125 71.5625 C-10.54390352 70.36415172 -17.68306711 66.38929508 -24 59.1875 C-26.25101537 55.97038361 -28.19308195 52.67100102 -30 49.1875 C-30.34764404 48.57712891 -30.69528809 47.96675781 -31.0534668 47.33789062 C-32.78892994 43.39516187 -32.36912714 39.18357971 -32.375 34.9375 C-32.39949219 34.02097656 -32.42398438 33.10445312 -32.44921875 32.16015625 C-32.47670951 25.73648113 -31.28261359 21.7147466 -28 16.1875 C-27.34 16.1875 -26.68 16.1875 -26 16.1875 C-25.73316406 15.61128906 -25.46632812 15.03507813 -25.19140625 14.44140625 C-22.17019335 8.72586577 -18.37677989 4.26413004 -12.125 2.25 C-11.36445313 2.05535156 -10.60390625 1.86070312 -9.8203125 1.66015625 C-3.49338839 0.01732832 -3.49338839 0.01732832 0 0 Z " fill="#F9BF15" transform="translate(216,170.8125)"/>
<path d="M0 0 C4 4.75 4 4.75 4 7 C4.66 7 5.32 7 6 7 C6 7.66 6 8.32 6 9 C6.66 9 7.32 9 8 9 C8 9.66 8 10.32 8 11 C8.99 11.33 9.98 11.66 11 12 C10 15 10 15 8.4375 16.1875 C6.12139243 19.10780954 6.66289282 22.46037459 7 26 C7.23332031 26.83015625 7.46664062 27.6603125 7.70703125 28.515625 C8 31 8 31 6.77734375 32.9921875 C6.17019531 33.61351562 5.56304687 34.23484375 4.9375 34.875 C3.97070312 35.89207031 3.97070312 35.89207031 2.984375 36.9296875 C2.32953125 37.61289063 1.6746875 38.29609375 1 39 C-0.59528971 40.90428726 -2.16920279 42.82411739 -3.73828125 44.75 C-5 46 -5 46 -7 46 C-6.67 46.99 -6.34 47.98 -6 49 C-6.33 49.66 -6.66 50.32 -7 51 C-8.2065625 51.1546875 -8.2065625 51.1546875 -9.4375 51.3125 C-10.283125 51.539375 -11.12875 51.76625 -12 52 C-12.28875 52.804375 -12.5775 53.60875 -12.875 54.4375 C-13.431875 55.7059375 -13.431875 55.7059375 -14 57 C-16.32206525 57.70491267 -18.65593068 58.37212429 -21 59 C-22.20003343 60.81601365 -22.20003343 60.81601365 -23 63 C-24.6459651 64.68711423 -26.31237149 66.3545622 -28 68 C-28.66 68.99 -29.32 69.98 -30 71 C-30.66 71 -31.32 71 -32 71 C-32.33 71.99 -32.66 72.98 -33 74 C-33.598125 74.515625 -34.19625 75.03125 -34.8125 75.5625 C-38.06254793 79.18398198 -39.37243571 83.46359741 -41 88 C-42.32 88 -43.64 88 -45 88 C-45.33 88.66 -45.66 89.32 -46 90 C-46.86625 90.185625 -47.7325 90.37125 -48.625 90.5625 C-52.98351897 92.41890623 -54.67432632 95.02371512 -57.38671875 98.80859375 C-58.81287153 100.74581339 -60.2969783 102.31574438 -62 104 C-62.66 104.99 -63.32 105.98 -64 107 C-65.32303717 107.3721042 -66.65737935 107.70630173 -68 108 C-68.66 108.66 -69.32 109.32 -70 110 C-69.773125 110.7425 -69.54625 111.485 -69.3125 112.25 C-69 115 -69 115 -70.875 118.1875 C-73.79516705 121.41202249 -76.80446659 121.95014285 -81.01171875 122.48046875 C-83.39141673 122.86693687 -83.39141673 122.86693687 -85 126 C-85.38499891 127.65549531 -85.72793135 129.3222433 -86 131 C-86.99 131 -87.98 131 -89 131 C-89.99 131.33 -90.98 131.66 -92 132 C-93.22520264 135.00847418 -93.22520264 135.00847418 -94 138 C-96.31 138 -98.62 138 -101 138 C-100.95875 139.11375 -100.9175 140.2275 -100.875 141.375 C-101 145 -101 145 -103 147 C-103.268125 147.639375 -103.53625 148.27875 -103.8125 148.9375 C-105.9518091 152.65314212 -109.30005847 153.77117296 -113.25 155.0625 C-116.13618706 155.68714055 -116.13618706 155.68714055 -117 158 C-117.35169068 159.32860925 -117.68770276 160.66158328 -118 162 C-118.99 161.01 -118.99 161.01 -120 160 C-122.04119788 161.61594832 -124.04072937 163.2856382 -126 165 C-126 165.66 -126 166.32 -126 167 C-126.66 167 -127.32 167 -128 167 C-128 167.66 -128 168.32 -128 169 C-127.01 169 -126.02 169 -125 169 C-125 169.66 -125 170.32 -125 171 C-125.66386719 170.97679687 -126.32773437 170.95359375 -127.01171875 170.9296875 C-127.89472656 170.91164063 -128.77773438 170.89359375 -129.6875 170.875 C-130.55761719 170.85179687 -131.42773438 170.82859375 -132.32421875 170.8046875 C-135.26099992 171.01905109 -137.29229414 171.87986041 -140 173 C-142.71875 173.484375 -142.71875 173.484375 -145.5 173.75 C-146.4178125 173.84796875 -147.335625 173.9459375 -148.28125 174.046875 C-151.28897621 173.99501765 -153.29670559 173.27329084 -156 172 C-156.495 172.99 -156.495 172.99 -157 174 C-158.33897583 173.04956626 -159.67105427 172.08940853 -161 171.125 C-161.7425 170.59132813 -162.485 170.05765625 -163.25 169.5078125 C-163.8275 169.01023437 -164.405 168.51265625 -165 168 C-165 167.34 -165 166.68 -165 166 C-165.928125 165.6596875 -165.928125 165.6596875 -166.875 165.3125 C-169.61410209 163.62070165 -170.05024472 162.00755839 -171 159 C-170.57589844 159.38671875 -170.15179688 159.7734375 -169.71484375 160.171875 C-161.68960975 167.29757728 -154.99623263 170.4400593 -144.171875 170.34765625 C-132.5538435 169.07425132 -123.85973845 159.5467008 -116.6875 151.125 C-113.65073481 147.60314977 -110.38245779 144.59514522 -106.796875 141.640625 C-104.90340533 140.02085893 -104.90340533 140.02085893 -103.390625 137.796875 C-102.93171875 137.20390625 -102.4728125 136.6109375 -102 136 C-101.34 136 -100.68 136 -100 136 C-100 135.34 -100 134.68 -100 134 C-98.7421875 132.765625 -98.7421875 132.765625 -96.875 131.25 C-90.81063959 126.10776952 -85.30848691 120.39410615 -79.72583008 114.74169922 C-75.20523985 110.17954181 -70.64437281 105.65780839 -66.0859375 101.13354492 C-59.20666808 94.30335453 -52.33509152 87.46547704 -45.46780396 80.62324047 C-41.31907853 76.49018583 -37.1675884 72.35998822 -33.00976562 68.23608398 C-28.97736543 64.23635841 -24.95240973 60.22927727 -20.93243408 56.21706581 C-19.40412719 54.69428087 -17.8731922 53.17412865 -16.33953857 51.65672874 C-14.19061431 49.52969133 -12.05137389 47.39333627 -9.9140625 45.25463867 C-9.28534241 44.63670441 -8.65662231 44.01877014 -8.0088501 43.3821106 C-1.00322161 36.32740075 3.93384799 28.89649621 4.375 18.75 C4.30496371 13.62334373 3.03324365 9.70999336 0.875 5.09375 C0 3 0 3 0 0 Z " fill="#446CBE" transform="translate(421,133)"/>
<path d="M0 0 C1.66870487 0.32297514 3.33465333 0.66013333 5 1 C5.68964844 1.1340625 6.37929687 1.268125 7.08984375 1.40625 C7.84394531 1.5609375 8.59804687 1.715625 9.375 1.875 C10.08398438 2.01679688 10.79296875 2.15859375 11.5234375 2.3046875 C14.16072985 3.04512605 16.56850565 4.11432189 19.07177734 5.21533203 C47.66170133 16.84967182 84.16137129 17.30761812 114 11 C114.33 10.67 114.66 10.34 115 10 C116.61684194 9.62911153 118.24399077 9.30256403 119.875 9 C122.69737213 8.47337663 125.27018179 7.9099394 128 7 C127.01 5.02 127.01 5.02 126 3 C130.60843373 2.87198795 130.60843373 2.87198795 132.828125 3.59765625 C135.74818107 4.13860189 137.68600866 3.39676647 140.5 2.5 C144.22700196 1.3122741 146.26638687 0.90655633 150 2 C130.71482606 12.00848871 107.7176021 17.6827766 86 18 C84.92057129 18.02054443 84.92057129 18.02054443 83.81933594 18.04150391 C78.20989662 18.137898 72.60903637 18.10373544 67 18 C65.77796875 17.98324219 64.5559375 17.96648437 63.296875 17.94921875 C41.02970618 17.07550697 20.12284221 10.09961347 0 1 C0 0.67 0 0.34 0 0 Z " fill="#648BD2" transform="translate(232,357)"/>
<path d="M0 0 C0.33 0 0.66 0 1 0 C1.60325528 9.85316949 -0.8061231 19.72996705 -4 29 C-8.3010682 42.98559264 -6.21314849 60.36721668 -5.625 74.8125 C-5.59422363 75.67190186 -5.56344727 76.53130371 -5.53173828 77.41674805 C-5.2888662 82.65966085 -4.59555303 87.60030162 -3.42773438 92.71899414 C-2.77723541 96.18795065 -2.8696413 99.48031509 -3 103 C-3.33 103 -3.66 103 -4 103 C-6.25193444 94.78803784 -7.76509136 86.71173909 -8.6875 78.25 C-8.8127002 77.1060376 -8.93790039 75.9620752 -9.06689453 74.78344727 C-11.53105205 51.08562764 -10.89454392 21.78908784 0 0 Z " fill="#81A8E7" transform="translate(145,145)"/>
<path d="M0 0 C1.23737915 0.00323273 1.23737915 0.00323273 2.49975586 0.00653076 C14.55022464 0.05714577 26.25718667 0.35539658 38 3.3125 C38.85964355 3.52712891 39.71928711 3.74175781 40.60498047 3.96289062 C51.03494553 6.63620206 61.25902616 9.67091325 71 14.3125 C71.66999023 14.63041504 72.33998047 14.94833008 73.03027344 15.27587891 C75.25550621 16.33839071 77.47299615 17.41531518 79.6875 18.5 C80.39624268 18.84530762 81.10498535 19.19061523 81.83520508 19.54638672 C86.88103242 22.07456485 86.88103242 22.07456485 88 24.3125 C86.04096255 23.83622025 84.08278903 23.35638577 82.125 22.875 C81.03445313 22.60816406 79.94390625 22.34132813 78.8203125 22.06640625 C76 21.3125 76 21.3125 74 20.3125 C74 19.6525 74 18.9925 74 18.3125 C73.43152344 18.13074219 72.86304688 17.94898437 72.27734375 17.76171875 C67.39298997 16.17165366 62.68970973 14.40790222 58 12.3125 C58 11.6525 58 10.9925 58 10.3125 C57.39704102 10.34657959 56.79408203 10.38065918 56.17285156 10.41577148 C49.49323389 10.62764906 44.05702296 9.48216287 37.75 7.375 C36.03753169 6.82089051 34.32401112 6.27002086 32.609375 5.72265625 C31.4951416 5.35346069 31.4951416 5.35346069 30.35839844 4.97680664 C23.6684818 3.09241087 17.15423191 3.18202561 10.2578125 3.21484375 C9.13430389 3.2162587 8.01079529 3.21767365 6.85324097 3.21913147 C3.27713317 3.22471336 -0.29891123 3.23726259 -3.875 3.25 C-6.30468659 3.25501734 -8.73437417 3.25957984 -11.1640625 3.26367188 C-17.10939651 3.27467686 -23.05469372 3.29139699 -29 3.3125 C-29 2.9825 -29 2.6525 -29 2.3125 C-19.35208863 -0.00783331 -9.85666386 -0.04604767 0 0 Z " fill="#9CBBEE" transform="translate(308,29.6875)"/>
<path d="M0 0 C5.62602377 8.43903566 6.03041642 21.09526096 7 31 C7.07524902 31.7415332 7.15049805 32.48306641 7.22802734 33.24707031 C9.3395165 55.72301003 6.77752264 78.48873248 0 100 C-0.33 100 -0.66 100 -1 100 C-1.23731754 95.5700726 -1.29966081 92.268421 0.5 88.1875 C2.2459289 84.04599424 2.17477629 80.44816593 1.91015625 76.00390625 C2 73 2 73 2.98046875 69.1328125 C4.43917594 62.95948146 4.29887533 56.72411547 4.26074219 50.41821289 C4.25010889 48.33384501 4.26063957 46.25035588 4.2734375 44.16601562 C4.63449809 29.66514858 4.63449809 29.66514858 1 16 C0.7677354 13.28737884 0.58063765 10.59226874 0.4375 7.875 C0.39431641 7.12089844 0.35113281 6.36679688 0.30664062 5.58984375 C0.2005168 3.72678112 0.09974999 1.86341476 0 0 Z " fill="#789FDE" transform="translate(474,154)"/>
<path d="M0 0 C0.99 0 1.98 0 3 0 C1.54821438 3.38749978 -0.36940603 5.45161209 -3 8 C-3.66 8.99 -4.32 9.98 -5 11 C-6.32303717 11.3721042 -7.65737935 11.70630173 -9 12 C-9.66 12.66 -10.32 13.32 -11 14 C-10.6596875 15.11375 -10.6596875 15.11375 -10.3125 16.25 C-10 19 -10 19 -11.875 22.1875 C-14.79516705 25.41202249 -17.80446659 25.95014285 -22.01171875 26.48046875 C-24.39141673 26.86693687 -24.39141673 26.86693687 -26 30 C-26.38499891 31.65549531 -26.72793135 33.3222433 -27 35 C-27.99 35 -28.98 35 -30 35 C-31.485 35.495 -31.485 35.495 -33 36 C-34.22520264 39.00847418 -34.22520264 39.00847418 -35 42 C-36.98 42 -38.96 42 -41 42 C-40.01 41.505 -40.01 41.505 -39 41 C-38.32754181 39.66957818 -37.66156643 38.33587128 -37 37 C-35.65422058 35.41371155 -35.65422058 35.41371155 -34.09838867 33.87133789 C-33.51405563 33.28715591 -32.9297226 32.70297394 -32.3276825 32.10108948 C-31.69747696 31.48120651 -31.06727142 30.86132355 -30.41796875 30.22265625 C-29.76677567 29.57429306 -29.11558258 28.92592987 -28.44465637 28.25791931 C-26.36359273 26.18803004 -24.27569557 24.12519162 -22.1875 22.0625 C-20.79316015 20.6781972 -19.3992748 19.29343643 -18.00585938 17.90820312 C-15.43664781 15.35529914 -12.86482447 12.80509175 -10.28979492 10.25805664 C-7.51710343 7.51473424 -4.75528595 4.76081803 -2 2 C-1.34 1.34 -0.68 0.68 0 0 Z " fill="#3F6FD3" transform="translate(362,229)"/>
<path d="M0 0 C1.66870487 0.32297514 3.33465333 0.66013333 5 1 C5.68964844 1.1340625 6.37929687 1.268125 7.08984375 1.40625 C7.84394531 1.5609375 8.59804687 1.715625 9.375 1.875 C10.08398438 2.01679688 10.79296875 2.15859375 11.5234375 2.3046875 C14.16820485 3.04722471 16.58720397 4.11644468 19.09814453 5.21972656 C22.40385505 6.57595902 25.80089331 7.51883721 29.25 8.4375 C30.04196777 8.64922852 30.83393555 8.86095703 31.64990234 9.07910156 C40.41594784 11.29511534 49.32291392 12.53243777 58.27441406 13.74389648 C59.95229004 13.9712146 59.95229004 13.9712146 61.6640625 14.203125 C62.66904785 14.33364258 63.6740332 14.46416016 64.70947266 14.59863281 C67 15 67 15 68 16 C69.34015221 16.15582303 70.68758903 16.25044142 72.03515625 16.31640625 C72.84404297 16.35830078 73.65292969 16.40019531 74.48632812 16.44335938 C75.33646484 16.48267578 76.18660156 16.52199219 77.0625 16.5625 C77.91650391 16.60568359 78.77050781 16.64886719 79.65039062 16.69335938 C81.76672037 16.79976702 83.88333813 16.90041731 86 17 C86 17.33 86 17.66 86 18 C55.13399547 18.2990248 28.23535988 13.76811984 0 1 C0 0.67 0 0.34 0 0 Z " fill="#769CDC" transform="translate(232,357)"/>
<path d="M0 0 C4 4.75 4 4.75 4 7 C4.66 7 5.32 7 6 7 C6 7.66 6 8.32 6 9 C6.66 9 7.32 9 8 9 C8 9.66 8 10.32 8 11 C8.99 11.33 9.98 11.66 11 12 C10 15 10 15 8.4375 16.1875 C6.12139243 19.10780954 6.66289282 22.46037459 7 26 C7.23332031 26.83015625 7.46664063 27.6603125 7.70703125 28.515625 C8 31 8 31 6.77734375 32.9921875 C6.17019531 33.61351562 5.56304687 34.23484375 4.9375 34.875 C3.97070312 35.89207031 3.97070312 35.89207031 2.984375 36.9296875 C2.32953125 37.61289063 1.6746875 38.29609375 1 39 C-0.59528971 40.90428726 -2.16920279 42.82411739 -3.73828125 44.75 C-5 46 -5 46 -7 46 C-6.67 46.99 -6.34 47.98 -6 49 C-6.33 49.66 -6.66 50.32 -7 51 C-8.2065625 51.1546875 -8.2065625 51.1546875 -9.4375 51.3125 C-10.7059375 51.6528125 -10.7059375 51.6528125 -12 52 C-12.433125 53.2065625 -12.433125 53.2065625 -12.875 54.4375 C-13.431875 55.7059375 -13.431875 55.7059375 -14 57 C-17.625 58.3125 -17.625 58.3125 -21 59 C-16.21488181 53.25785818 -11.08892561 48.05362322 -5.68359375 42.8984375 C-5.07902344 42.30804688 -4.47445313 41.71765625 -3.8515625 41.109375 C-3.30322754 40.58311523 -2.75489258 40.05685547 -2.18994141 39.51464844 C-0.69111162 37.92785112 -0.69111162 37.92785112 -1 35 C-0.16015625 33.0625 -0.16015625 33.0625 0.9375 31 C4.13073491 24.95688877 4.68163536 19.78979637 4 13 C3.13275422 10.24677868 2.09667501 7.7067771 0.875 5.09375 C0 3 0 3 0 0 Z " fill="#5078C9" transform="translate(421,133)"/>
<path d="M0 0 C0.66 0.33 1.32 0.66 2 1 C-2.18463496 5.59123917 -6.91880067 8.77397924 -12.125 12.125 C-13.73387013 13.16603361 -15.34072531 14.21018946 -16.9453125 15.2578125 C-17.65187988 15.7130127 -18.35844727 16.16821289 -19.08642578 16.63720703 C-20.93708938 17.95519685 -22.41629656 19.37973442 -24 21 C-25.41115312 21.85744351 -26.85156971 22.66792532 -28.3125 23.4375 C-34.29165543 26.68388099 -39.29845262 30.02189101 -44 35 C-44.66 34.67 -45.32 34.34 -46 34 C-41.73253746 28.34956349 -36.54222406 24.3469819 -31 20 C-30.06800781 19.26394531 -29.13601562 18.52789062 -28.17578125 17.76953125 C-22.44723577 13.35394026 -16.56197386 9.34168406 -10.4375 5.5 C-9.4007312 4.84946655 -9.4007312 4.84946655 -8.34301758 4.18579102 C-5.58875924 2.48590519 -3.08140957 1.02713652 0 0 Z " fill="#6697E9" transform="translate(230,48)"/>
<path d="M0 0 C0.33 0 0.66 0 1 0 C1.00257813 1.17175781 1.00515625 2.34351563 1.0078125 3.55078125 C1.18636096 13.40875684 1.94487896 20.83517615 8 29 C8.52851563 29.74765625 9.05703125 30.4953125 9.6015625 31.265625 C14.53959673 37.58443657 21.17505907 41.32407271 29 43 C31.75970408 43.06926968 34.49196042 43.0941736 37.25 43.0625 C37.99507812 43.05798828 38.74015625 43.05347656 39.5078125 43.04882812 C41.3385764 43.03709246 43.16929873 43.0191585 45 43 C45 43.66 45 44.32 45 45 C43.35451172 45.09087891 43.35451172 45.09087891 41.67578125 45.18359375 C40.22134346 45.26804498 38.76691695 45.35269066 37.3125 45.4375 C36.59126953 45.47681641 35.87003906 45.51613281 35.12695312 45.55664062 C34.42119141 45.59853516 33.71542969 45.64042969 32.98828125 45.68359375 C31.95006226 45.7446228 31.95006226 45.7446228 30.89086914 45.80688477 C28.84066323 45.95589929 28.84066323 45.95589929 26.328125 46.8046875 C24 47 24 47 21.24609375 45.19921875 C19.85583984 43.95591797 19.85583984 43.95591797 18.4375 42.6875 C14.90708403 39.44995972 14.90708403 39.44995972 10.8515625 37 C8.26602882 35.60359363 7.38966264 33.84119921 5.9375 31.3125 C5.45152344 30.48363281 4.96554688 29.65476563 4.46484375 28.80078125 C0.75211921 21.70205192 -0.4246577 17.0589712 -0.1875 9.0625 C-0.17396484 8.18787109 -0.16042969 7.31324219 -0.14648438 6.41210938 C-0.11144109 4.27446914 -0.05764541 2.13715016 0 0 Z " fill="#667EA1" transform="translate(183,198)"/>
<path d="M0 0 C3.81805691 1.63892611 6.80677059 4.14012144 9.9375 6.8125 C10.77933838 7.52805054 10.77933838 7.52805054 11.63818359 8.25805664 C15.96342622 11.98988608 20.08329824 15.90154664 24.125 19.9375 C24.66890381 20.48059814 25.21280762 21.02369629 25.77319336 21.58325195 C28.40401508 24.2514374 30.85192745 26.92603411 33 30 C32.67 30.66 32.34 31.32 32 32 C29.5 30.75 29.5 30.75 27 29 C27 27.68 27 26.36 27 25 C25.35 25 23.7 25 22 25 C21.67 24.01 21.34 23.02 21 22 C18.99983534 20.79117904 18.99983534 20.79117904 17 20 C17 19.01 17 18.02 17 17 C15.68 16.67 14.36 16.34 13 16 C13 14.68 13 13.36 13 12 C11.68 11.67 10.36 11.34 9 11 C9 10.34 9 9.68 9 9 C8.071875 8.7525 7.14375 8.505 6.1875 8.25 C2.81004243 6.92550684 1.7093634 6.1338329 0 3 C0 2.01 0 1.02 0 0 Z " fill="#6D9BE6" transform="translate(410,63)"/>
<path d="M0 0 C0 3 0 3 -1.14996338 4.5039978 C-1.68861023 5.03296661 -2.22725708 5.56193542 -2.78222656 6.10693359 C-3.38995911 6.71121185 -3.99769165 7.31549011 -4.62384033 7.93807983 C-5.28937927 8.58499786 -5.95491821 9.23191589 -6.640625 9.8984375 C-7.65851105 10.90639877 -7.65851105 10.90639877 -8.69696045 11.9347229 C-10.87435694 14.08866051 -13.06161294 16.23223435 -15.25 18.375 C-17.42240481 20.51226509 -19.59264506 22.65166301 -21.76019287 24.79385376 C-23.11038116 26.1271652 -24.46364519 27.45737115 -25.82037354 28.7840271 C-31.6029415 34.3520673 -31.6029415 34.3520673 -36 41 C-36.71542969 41.40863281 -37.43085938 41.81726563 -38.16796875 42.23828125 C-41.73546432 44.45750953 -44.40130819 47.18433858 -47.3125 50.1875 C-47.86228516 50.74630859 -48.41207031 51.30511719 -48.97851562 51.88085938 C-50.32363696 53.24937412 -51.66246643 54.62406833 -53 56 C-53.66 55.67 -54.32 55.34 -55 55 C-50.55414436 49.78557889 -46.06258172 44.96013305 -40.76171875 40.60546875 C-38.89880453 39.01517884 -38.89880453 39.01517884 -37.39453125 36.80078125 C-36.93433594 36.20652344 -36.47414063 35.61226563 -36 35 C-35.34 35 -34.68 35 -34 35 C-34 34.34 -34 33.68 -34 33 C-32.7421875 31.765625 -32.7421875 31.765625 -30.875 30.25 C-24.75867729 25.06370847 -19.21511231 19.29477403 -13.58129883 13.59741211 C-11.39596891 11.38981389 -9.19834367 9.19463025 -7 7 C-6.33355469 6.33355469 -5.66710937 5.66710937 -4.98046875 4.98046875 C-2.49023438 2.49023438 -2.49023438 2.49023438 0 0 Z " fill="#4969B1" transform="translate(355,234)"/>
<path d="M0 0 C-3.14573677 2.09715785 -5.01456251 2.52004559 -8.6875 3.125 C-10.17830078 3.37636719 -10.17830078 3.37636719 -11.69921875 3.6328125 C-12.45847656 3.75398438 -13.21773438 3.87515625 -14 4 C-14 4.66 -14 5.32 -14 6 C-14.6290625 6.10957031 -15.258125 6.21914063 -15.90625 6.33203125 C-22.42662227 7.53987129 -28.29127785 9.24390421 -34.28515625 12.08203125 C-38.7281608 14.18114692 -41.95622799 15.51730995 -47 15 C-45.35453475 11.70906949 -41.74107121 11.23874912 -38.4375 10.0625 C-37.74591797 9.81048828 -37.05433594 9.55847656 -36.34179688 9.29882812 C-34.9345087 8.78601389 -33.52612125 8.27620719 -32.11669922 7.76928711 C-30.03982488 7.01447384 -27.97490275 6.23260607 -25.91015625 5.4453125 C-17.49576578 2.28436193 -9.07199907 -0.72575993 0 0 Z " fill="#95B8ED" transform="translate(279,33)"/>
<path d="M0 0 C0.66 0 1.32 0 2 0 C2 0.66 2 1.32 2 2 C2.66 2.33 3.32 2.66 4 3 C3.11957031 3.845625 2.23914063 4.69125 1.33203125 5.5625 C-11.03617297 17.47887493 -11.03617297 17.47887493 -15.5625 33.6875 C-15.64628906 34.86699219 -15.73007813 36.04648437 -15.81640625 37.26171875 C-15.87699219 38.16535156 -15.93757812 39.06898438 -16 40 C-18.62496902 35.38258462 -18.76121471 31.20286557 -18 26 C-16.62697214 22.47892507 -14.93260339 19.24401283 -13 16 C-12.34 16 -11.68 16 -11 16 C-10.34 14.35 -9.68 12.7 -9 11 C-8.34 11 -7.68 11 -7 11 C-6.67 10.01 -6.34 9.02 -6 8 C-4.0625 4.8125 -4.0625 4.8125 -2 2 C-1.34 2 -0.68 2 0 2 C0 1.34 0 0.68 0 0 Z " fill="#5383D6" transform="translate(262,242)"/>
<path d="M0 0 C0.90990692 -0.00570007 1.81981384 -0.01140015 2.7572937 -0.01727295 C4.67509823 -0.02667144 6.59291854 -0.03323629 8.51074219 -0.03710938 C11.40068761 -0.04677798 14.28990953 -0.07783581 17.1796875 -0.109375 C27.64921804 -0.16750526 37.16200704 0.33976662 47.3046875 3.203125 C47.3046875 3.533125 47.3046875 3.863125 47.3046875 4.203125 C45.61756668 4.25804033 43.92990225 4.29632418 42.2421875 4.328125 C41.30246094 4.35132813 40.36273438 4.37453125 39.39453125 4.3984375 C36.3046875 4.203125 36.3046875 4.203125 33.13867188 3.2097168 C28.90817733 2.09902341 25.21430473 1.89702957 20.87109375 1.90234375 C19.6776963 1.89591606 19.6776963 1.89591606 18.46018982 1.88935852 C16.78019149 1.88364092 15.10016843 1.88309591 13.42016602 1.88745117 C10.90530645 1.89057761 8.39166477 1.86723792 5.87695312 1.84179688 C-3.42373164 1.80617699 -12.10066001 2.50282459 -21.19946289 4.46020508 C-24.68705678 5.20137054 -28.16169085 5.7354273 -31.6953125 6.203125 C-28.8069863 4.2775742 -26.8132045 3.53107616 -23.5078125 2.640625 C-22.60675781 2.39183594 -21.70570313 2.14304688 -20.77734375 1.88671875 C-13.85671805 0.35172572 -7.05986271 0.03507697 0 0 Z " fill="#6598EC" transform="translate(296.6953125,31.796875)"/>
<path d="M0 0 C0 0.99 0 1.98 0 3 C-0.66 3.66 -1.32 4.32 -2 5 C-2.268125 5.639375 -2.53625 6.27875 -2.8125 6.9375 C-4.9518091 10.65314212 -8.30005847 11.77117296 -12.25 13.0625 C-15.13618706 13.68714055 -15.13618706 13.68714055 -16 16 C-16.35169068 17.32860925 -16.68770276 18.66158328 -17 20 C-17.66 19.34 -18.32 18.68 -19 18 C-19.99 18.99 -20.98 19.98 -22 21 C-22.66 20.67 -23.32 20.34 -24 20 C-21.23782953 17.13890883 -18.46265392 14.29116004 -15.67480469 11.45507812 C-14.72843358 10.48859906 -13.78568448 9.51855941 -12.84667969 8.54492188 C-11.49592501 7.14561999 -10.13093836 5.76010051 -8.765625 4.375 C-7.94868164 3.53710938 -7.13173828 2.69921875 -6.29003906 1.8359375 C-4 0 -4 0 0 0 Z " fill="#3E70D3" transform="translate(320,275)"/>
<path d="M0 0 C0 0.66 0 1.32 0 2 C-9.6468882 5.07798195 -18.75636977 5.36603789 -28.75 5.1875 C-30.23696545 5.17240967 -31.7239459 5.15872904 -33.2109375 5.14648438 C-36.80761014 5.11386039 -40.40370473 5.0623247 -44 5 C-44.33 4.34 -44.66 3.68 -45 3 C-44.27522461 2.98018066 -43.55044922 2.96036133 -42.80371094 2.93994141 C-39.45216966 2.84343664 -36.10114824 2.73427657 -32.75 2.625 C-31.61046875 2.5940625 -30.4709375 2.563125 -29.296875 2.53125 C-22.58726958 2.30251345 -16.15490999 1.68045584 -9.55664062 0.42773438 C-6.30360695 -0.11650885 -3.28782187 -0.14944645 0 0 Z " fill="#5581D1" transform="translate(344,369)"/>
<path d="M0 0 C0 3.18457768 -0.38642556 4.33159696 -2 7 C-3.55078125 8.52734375 -3.55078125 8.52734375 -5.3125 9.9375 C-9.72643672 13.58696109 -13.59970874 17.51687031 -17.3125 21.875 C-26.62591904 32.59153239 -26.62591904 32.59153239 -33 34 C-29.03627475 29.24914133 -24.90205218 24.76386888 -20.5078125 20.41015625 C-19.91700897 19.82076767 -19.32620544 19.23137909 -18.71749878 18.62413025 C-16.85569596 16.76786273 -14.99042255 14.91512915 -13.125 13.0625 C-11.85132989 11.79385328 -10.57789029 10.5249751 -9.3046875 9.25585938 C-6.20577957 6.16789446 -3.10375699 3.08309071 0 0 Z " fill="#DAEAFB" transform="translate(361,149)"/>
<path d="M0 0 C2 0 2 0 3.5 1.25 C8.25078758 6.79258551 7.36746281 13.05070647 7.375 20 C7.39949219 21.18851563 7.42398438 22.37703125 7.44921875 23.6015625 C7.45308594 24.74367187 7.45695313 25.88578125 7.4609375 27.0625 C7.46915527 28.10535156 7.47737305 29.14820313 7.48583984 30.22265625 C6.88043577 33.68349884 5.57156424 34.70318872 3 37 C2.67 37.99 2.34 38.98 2 40 C0.515 40.495 0.515 40.495 -1 41 C-0.731875 40.34 -0.46375 39.68 -0.1875 39 C0.204375 38.01 0.59625 37.02 1 36 C1.53625 34.906875 2.0725 33.81375 2.625 32.6875 C6.54285411 22.05906499 4.27801495 10.08389237 0 0 Z " fill="#76848F" transform="translate(248,186)"/>
<path d="M0 0 C0.66 0.33 1.32 0.66 2 1 C-5.26 8.26 -12.52 15.52 -20 23 C-20.33 21.68 -20.66 20.36 -21 19 C-19.68 18.34 -18.36 17.68 -17 17 C-17 16.01 -17 15.02 -17 14 C-15.35 13.34 -13.7 12.68 -12 12 C-12.33 11.34 -12.66 10.68 -13 10 C-13.33 9.01 -13.66 8.02 -14 7 C-13 6 -13 6 -10.4375 5.9375 C-9.2309375 5.9684375 -9.2309375 5.9684375 -8 6 C-8 5.34 -8 4.68 -8 4 C-6.71349294 3.30289269 -5.42059335 2.61757124 -4.125 1.9375 C-3.40570313 1.55464844 -2.68640625 1.17179688 -1.9453125 0.77734375 C-0.98238281 0.39255859 -0.98238281 0.39255859 0 0 Z " fill="#4F82D9" transform="translate(288,220)"/>
<path d="M0 0 C0.99 0.33 1.98 0.66 3 1 C0.07434606 4.12623069 -2.95379481 6.4522122 -6.5625 8.75 C-7.51253906 9.36359375 -8.46257812 9.9771875 -9.44140625 10.609375 C-12 12 -12 12 -15 12 C-15 12.66 -15 13.32 -15 14 C-16.28650706 14.69710731 -17.57940665 15.38242876 -18.875 16.0625 C-19.95394531 16.63677734 -19.95394531 16.63677734 -21.0546875 17.22265625 C-21.69664062 17.47917969 -22.33859375 17.73570312 -23 18 C-23.66 17.67 -24.32 17.34 -25 17 C-23.625 15.5 -23.625 15.5 -22 14 C-21.34 14 -20.68 14 -20 14 C-19.67 13.01 -19.34 12.02 -19 11 C-17.66666667 10.66666667 -16.33333333 10.33333333 -15 10 C-14.67 9.01 -14.34 8.02 -14 7 C-12.02 7 -10.04 7 -8 7 C-8 5.68 -8 4.36 -8 3 C-7.34 3 -6.68 3 -6 3 C-5.67 2.34 -5.34 1.68 -5 1 C-4.01 1.33 -3.02 1.66 -2 2 C-1.34 1.34 -0.68 0.68 0 0 Z " fill="#7399DF" transform="translate(408,340)"/>
<path d="M0 0 C5.93806959 0.00706072 11.31019088 0.42169717 17 2.1875 C17.495 3.1775 17.495 3.1775 18 4.1875 C16.54400391 3.95740234 16.54400391 3.95740234 15.05859375 3.72265625 C10.73780106 3.10540015 6.41858682 2.85269605 2.0625 2.625 C1.28326172 2.58181641 0.50402344 2.53863281 -0.29882812 2.49414062 C-2.19907117 2.38921923 -4.09951669 2.2879755 -6 2.1875 C-6 2.8475 -6 3.5075 -6 4.1875 C-17.52164009 9.55879841 -17.52164009 9.55879841 -23 11.1875 C-19.28952366 5.87642602 -16.15359867 3.36215426 -9.85546875 1.6953125 C-3.72863638 0.01849522 -3.72863638 0.01849522 0 0 Z " fill="#CBBD7B" transform="translate(216,170.8125)"/>
<path d="M0 0 C2.24587654 1.08134796 4.33545396 2.21503459 6.4375 3.5625 C8.90737725 5.12626795 8.90737725 5.12626795 11.625 5.5 C14 6 14 6 15.3125 7.5 C19.77676139 11.46823235 29.30959356 10.25377456 35 10 C37.93471013 9.58480886 37.93471013 9.58480886 40 9 C39 11 39 11 36.1875 12.125 C26.87757084 14.48580003 17.45491743 13.56716522 9 9 C5.74767712 6.56548506 2.76294783 3.98125482 0 1 C0 0.67 0 0.34 0 0 Z " fill="#B8A55E" transform="translate(192,229)"/>
<path d="M0 0 C0.66 0 1.32 0 2 0 C2.6628418 1.75415039 2.6628418 1.75415039 3 4 C1.98364258 5.93530273 1.98364258 5.93530273 0.39453125 7.93359375 C-0.17716797 8.66513672 -0.74886719 9.39667969 -1.33789062 10.15039062 C-1.94826172 10.90513672 -2.55863281 11.65988281 -3.1875 12.4375 C-3.77853516 13.18837891 -4.36957031 13.93925781 -4.97851562 14.71289062 C-6.1258503 16.16720448 -7.2803949 17.61586598 -8.44287109 19.05810547 C-9.7560011 20.69570912 -11.03274993 22.36238827 -12.30078125 24.03515625 C-13.14189453 25.00775391 -13.14189453 25.00775391 -14 26 C-14.66 26 -15.32 26 -16 26 C-16.33 26.66 -16.66 27.32 -17 28 C-17 26.35 -17 24.7 -17 23 C-16.34 22.67 -15.68 22.34 -15 22 C-14.67 21.01 -14.34 20.02 -14 19 C-13.01 19 -12.02 19 -11 19 C-10.34 17.35 -9.68 15.7 -9 14 C-8.34 14 -7.68 14 -7 14 C-6.67 12.68 -6.34 11.36 -6 10 C-5.34 10 -4.68 10 -4 10 C-2.26337666 6.77484237 -1.1094072 3.48670834 0 0 Z " fill="#6E96D9" transform="translate(451,293)"/>
<path d="M0 0 C0.66 0 1.32 0 2 0 C2.12375 0.94875 2.2475 1.8975 2.375 2.875 C2.71687177 6.08667191 2.71687177 6.08667191 5 8 C5.74609375 9.91796875 5.74609375 9.91796875 6.4375 12.1875 C7.36615061 15.12429862 8.35977018 17.94180699 9.625 20.75 C10.81410482 23.56061138 11.54523712 25.99856501 12 29 C12.66 29 13.32 29 14 29 C14.66 30.98 15.32 32.96 16 35 C15.34 35.66 14.68 36.32 14 37 C10.12682549 29.66617844 6.56614943 22.32026147 3.625 14.5625 C3.24964111 13.58893555 3.24964111 13.58893555 2.86669922 12.59570312 C1.30672965 8.36784954 0.49352646 4.44747682 0 0 Z " fill="#88ADE2" transform="translate(142,248)"/>
<path d="M0 0 C0 3.96018245 -1.18721244 6.5039097 -3 10 C-5.1875 10.9375 -5.1875 10.9375 -7 11 C-7.33 12.32 -7.66 13.64 -8 15 C-8.66 15 -9.32 15 -10 15 C-10.33 16.32 -10.66 17.64 -11 19 C-12.32 19.33 -13.64 19.66 -15 20 C-15 20.99 -15 21.98 -15 23 C-15.99 23.33 -16.98 23.66 -18 24 C-16.54997977 19.89160936 -14.6020866 16.49655387 -12 13 C-11.34 13 -10.68 13 -10 13 C-9.75507813 12.43796875 -9.51015625 11.8759375 -9.2578125 11.296875 C-7.77073461 8.58134146 -5.95937218 6.53608562 -3.875 4.25 C-3.15054688 3.45078125 -2.42609375 2.6515625 -1.6796875 1.828125 C-1.12539062 1.22484375 -0.57109375 0.6215625 0 0 Z " fill="#9BBDED" transform="translate(183,83)"/>
<path d="M0 0 C0 0.99 0 1.98 0 3 C-0.66 3.639375 -1.32 4.27875 -2 4.9375 C-4.46409722 6.99977339 -4.46409722 6.99977339 -4 11 C-4.763125 11.0825 -5.52625 11.165 -6.3125 11.25 C-9.60996088 12.17022164 -10.03903786 13.30367706 -12 16 C-13.65204456 16.70211894 -15.31923769 17.36971413 -17 18 C-18.77277259 19.52007842 -18.77277259 19.52007842 -20 21 C-20.66 20.67 -21.32 20.34 -22 20 C-19.61255632 17.55416165 -17.21362856 15.11989907 -14.8125 12.6875 C-14.13896484 11.99720703 -13.46542969 11.30691406 -12.77148438 10.59570312 C-9.37635587 7.16745142 -6.2896939 4.29777022 -2 2 C-1.34 1.34 -0.68 0.68 0 0 Z " fill="#426BC1" transform="translate(378,213)"/>
<path d="M0 0 C1.04449911 3.13349732 0.93423645 3.98968256 0 7 C1.65 7 3.3 7 5 7 C5 7.99 5 8.98 5 10 C5.66 10 6.32 10 7 10 C7 11.65 7 13.3 7 15 C5.77004051 14.0843974 4.54107614 13.16745797 3.3125 12.25 C2.57515625 11.7034375 1.8378125 11.156875 1.078125 10.59375 C-1 9 -1 9 -3.4375 6.75 C-7.0388198 4.29056209 -10.74544253 3.70445832 -15 3 C-15 2.67 -15 2.34 -15 2 C-14.08476562 1.93941406 -13.16953125 1.87882813 -12.2265625 1.81640625 C-10.44378906 1.69072266 -10.44378906 1.69072266 -8.625 1.5625 C-7.44164062 1.48128906 -6.25828125 1.40007812 -5.0390625 1.31640625 C-2.08481099 1.18915064 -2.08481099 1.18915064 0 0 Z " fill="#5B8DD9" transform="translate(239,169)"/>
<path d="M0 0 C0.66 0.33 1.32 0.66 2 1 C0.33333333 2.66666667 -1.33333333 4.33333333 -3 6 C-3.495 6.556875 -3.99 7.11375 -4.5 7.6875 C-6 9 -6 9 -8.3125 9.84375 C-11.28208173 11.12136074 -13.12844898 12.62883594 -15.5 14.8125 C-16.65822266 15.87404297 -16.65822266 15.87404297 -17.83984375 16.95703125 C-20.27650817 19.26150773 -22.66652246 21.59124899 -25 24 C-25.66 23.67 -26.32 23.34 -27 23 C-19.90109958 13.60053 -9.41599838 6.95107734 0 0 Z " fill="#B4CFF5" transform="translate(211,59)"/>
<path d="M0 0 C1.70485731 0.93340202 3.36542184 1.94836698 5 3 C6.93237053 4.07180066 8.86992945 5.1342991 10.8125 6.1875 C12.27623047 6.98220703 12.27623047 6.98220703 13.76953125 7.79296875 C14.50558594 8.19128906 15.24164063 8.58960938 16 9 C16 9.66 16 10.32 16 11 C16.99 11.33 17.98 11.66 19 12 C18.67 12.66 18.34 13.32 18 14 C13.49494547 12.41807245 9.72770059 10.08302964 5.75 7.5 C5.11320313 7.09652344 4.47640625 6.69304687 3.8203125 6.27734375 C-0.87473018 3.25053964 -0.87473018 3.25053964 -2 1 C-1.34 0.67 -0.68 0.34 0 0 Z " fill="#7598DB" transform="translate(208,340)"/>
<path d="M0 0 C0 3 0 3 -1 6 C-1.66 6 -2.32 6 -3 6 C-3.04125 6.763125 -3.0825 7.52625 -3.125 8.3125 C-4 11 -4 11 -6.5625 12.8125 C-10.70021573 14.24189271 -13.65063225 14.2249673 -18 14 C-15.63871309 12.11097047 -13.37506668 10.66984655 -10.6875 9.25 C-6.42305307 6.88701642 -3.28504687 3.55464038 0 0 Z " fill="#5472A9" transform="translate(246,227)"/>
<path d="M0 0 C0 3.93169105 -1.39419615 5.16427228 -4 8 C-4.66 8 -5.32 8 -6 8 C-5.67 8.99 -5.34 9.98 -5 11 C-5.33 11.66 -5.66 12.32 -6 13 C-6.804375 13.103125 -7.60875 13.20625 -8.4375 13.3125 C-9.7059375 13.6528125 -9.7059375 13.6528125 -11 14 C-11.433125 15.2065625 -11.433125 15.2065625 -11.875 16.4375 C-12.24625 17.283125 -12.6175 18.12875 -13 19 C-16.625 20.3125 -16.625 20.3125 -20 21 C-15.76183463 15.93376232 -11.32591037 11.19961931 -6.625 6.5625 C-5.98433594 5.92634766 -5.34367187 5.29019531 -4.68359375 4.63476562 C-3.12469121 3.08749668 -1.56348584 1.54263508 0 0 Z " fill="#3F6DD3" transform="translate(420,171)"/>
<path d="M0 0 C0.66 0.33 1.32 0.66 2 1 C1.07213211 2.00894372 0.13231567 3.00690907 -0.8125 4 C-1.59560547 4.8353125 -1.59560547 4.8353125 -2.39453125 5.6875 C-4 7 -4 7 -7 7 C-7.226875 7.721875 -7.45375 8.44375 -7.6875 9.1875 C-9.76903697 13.64793636 -12.95315756 16.30210504 -17 19 C-16.51206786 14.6086107 -15.2670796 12.90407075 -12 10 C-11.236875 9.195625 -10.47375 8.39125 -9.6875 7.5625 C-6.63742303 4.65428708 -3.47197585 2.38272853 0 0 Z " fill="#5E93EB" transform="translate(198,72)"/>
<path d="M0 0 C-6.27087737 3.71607548 -10.75460274 4.53449652 -18 4 C-18 4.66 -18 5.32 -18 6 C-19.875 5.75 -19.875 5.75 -22 5 C-23.25 2.9375 -23.25 2.9375 -24 1 C-19.39156627 0.87198795 -19.39156627 0.87198795 -17.171875 1.59765625 C-14.25181893 2.13860189 -12.31399134 1.39676647 -9.5 0.5 C-5.88610847 -0.65167972 -3.62604082 -1.29990142 0 0 Z " fill="#407BD8" transform="translate(382,359)"/>
<path d="M0 0 C4.16416285 1.72735644 7.303638 4.59954686 10.6875 7.5 C11.28111328 7.99886719 11.87472656 8.49773437 12.48632812 9.01171875 C16.87051246 12.74102493 16.87051246 12.74102493 18 15 C17.443125 14.71125 16.88625 14.4225 16.3125 14.125 C13.91505355 12.9586747 11.48403061 11.9660119 9 11 C9 10.34 9 9.68 9 9 C8.071875 8.7525 7.14375 8.505 6.1875 8.25 C2.81004243 6.92550684 1.7093634 6.1338329 0 3 C0 2.01 0 1.02 0 0 Z " fill="#9DBDEE" transform="translate(410,63)"/>
<path d="M0 0 C0.66 0.33 1.32 0.66 2 1 C-2.4180912 5.67055355 -6.79717928 9.09143978 -13 11 C-15.15234375 10.546875 -15.15234375 10.546875 -17 10 C-14.73172355 8.51678092 -12.46058097 7.03832301 -10.1875 5.5625 C-9.54490234 5.14162109 -8.90230469 4.72074219 -8.24023438 4.28710938 C-5.51609896 2.52277296 -3.09247829 1.0308261 0 0 Z " fill="#96B8EE" transform="translate(230,48)"/>
<path d="M0 0 C0.66 0 1.32 0 2 0 C1.79503906 0.60328125 1.59007812 1.2065625 1.37890625 1.828125 C1.10949219 2.62734375 0.84007812 3.4265625 0.5625 4.25 C0.29566406 5.03890625 0.02882812 5.8278125 -0.24609375 6.640625 C-1.71212112 11.22860701 -2.24936802 15.41882089 -2.5625 20.25 C-2.64628906 21.51328125 -2.73007813 22.7765625 -2.81640625 24.078125 C-2.87699219 25.04234375 -2.93757812 26.0065625 -3 27 C-2.34 27 -1.68 27 -1 27 C-1 28.98 -1 30.96 -1 33 C-4.92498 28.45371121 -4.48142595 24.5242653 -4.4375 18.75 C-4.45748047 17.83347656 -4.47746094 16.91695312 -4.49804688 15.97265625 C-4.49347763 9.56658061 -3.26737195 5.51247704 0 0 Z " fill="#CCBC73" transform="translate(188,187)"/>
<path d="M0 0 C8.92252545 -0.62933173 15.48411827 -0.09233446 23 5 C25.625 7.3125 25.625 7.3125 27 9 C26.67 9.99 26.34 10.98 26 12 C25.55269531 11.60167969 25.10539062 11.20335937 24.64453125 10.79296875 C24.03996094 10.26316406 23.43539063 9.73335937 22.8125 9.1875 C22.22082031 8.66542969 21.62914062 8.14335937 21.01953125 7.60546875 C16.32600266 3.8742497 12.67377581 2.53980454 6.6875 1.8125 C5.43324219 1.65394531 4.17898438 1.49539062 2.88671875 1.33203125 C1.93410156 1.22246094 0.98148437 1.11289063 0 1 C0 0.67 0 0.34 0 0 Z " fill="#628ED9" transform="translate(394,123)"/>
<path d="M0 0 C1.32 0 2.64 0 4 0 C4 0.99 4 1.98 4 3 C4.99 3.33 5.98 3.66 7 4 C9.6875 6.4375 9.6875 6.4375 12 9 C12 9.66 12 10.32 12 11 C12.99 11.33 13.98 11.66 15 12 C15.6875 14.0625 15.6875 14.0625 16 16 C15.01 15.67 14.02 15.34 13 15 C13 14.34 13 13.68 13 13 C12.12601563 12.61328125 12.12601563 12.61328125 11.234375 12.21875 C8.8197097 10.90165983 7.18259823 9.44911616 5.25 7.5 C4.32960937 6.58734375 4.32960937 6.58734375 3.390625 5.65625 C2 4 2 4 2 2 C1.34 2 0.68 2 0 2 C0 1.34 0 0.68 0 0 Z " fill="#7CA3E1" transform="translate(180,317)"/>
<path d="M0 0 C0.33 1.32 0.66 2.64 1 4 C0.01 4.33 -0.98 4.66 -2 5 C-2.061875 6.216875 -2.12375 7.43375 -2.1875 8.6875 C-2.72840559 13.17383464 -4.45616799 15.14764741 -8 18 C-8.66 18.33 -9.32 18.66 -10 19 C-8.62394084 14.23448987 -6.53221934 10.2751447 -3.875 6.125 C-3.50246094 5.53203125 -3.12992188 4.9390625 -2.74609375 4.328125 C-1.83635 2.8818657 -0.91896202 1.44041954 0 0 Z " fill="#8EB2ED" transform="translate(164,107)"/>
<path d="M0 0 C1.66870487 0.32297514 3.33465333 0.66013333 5 1 C5.68964844 1.1340625 6.37929687 1.268125 7.08984375 1.40625 C12.06243611 2.42626895 16.40155801 3.84753779 21 6 C21 6.66 21 7.32 21 8 C21.66 8.33 22.32 8.66 23 9 C18.51722247 8.39055895 14.59198921 7.25451574 10.375 5.625 C9.26898438 5.20476562 8.16296875 4.78453125 7.0234375 4.3515625 C4.31837371 3.1423221 2.26341622 1.88802036 0 0 Z " fill="#83A5DA" transform="translate(232,357)"/>
<path d="M0 0 C1.32 0.33 2.64 0.66 4 1 C2.75865893 4.43755988 1.5565077 7.34880683 -1 10 C-3.6875 10.75 -3.6875 10.75 -6 11 C-5.38722388 8.03824877 -4.74627478 6.61941217 -3 4 C-2.34 4 -1.68 4 -1 4 C-0.67 2.68 -0.34 1.36 0 0 Z " fill="#4379DE" transform="translate(251,222)"/>
<path d="M0 0 C0 0.66 0 1.32 0 2 C-1.50240234 2.05607422 -1.50240234 2.05607422 -3.03515625 2.11328125 C-9.87267524 2.43004767 -15.85392702 2.71256562 -22 6 C-22.66 6 -23.32 6 -24 6 C-24 5.34 -24 4.68 -24 4 C-15.97331823 -0.1428035 -8.92981438 -0.46321804 0 0 Z " fill="#658BC5" transform="translate(224,169)"/>
<path d="M0 0 C0.33 0.66 0.66 1.32 1 2 C1.66 2.33 2.32 2.66 3 3 C-0.3 6.3 -3.6 9.6 -7 13 C-7.33 11.68 -7.66 10.36 -8 9 C-5.71777953 5.61893264 -2.93055354 2.82589091 0 0 Z " fill="#5189E2" transform="translate(343,162)"/>
<path d="M0 0 C0.99 0 1.98 0 3 0 C3.103125 0.639375 3.20625 1.27875 3.3125 1.9375 C3.539375 2.618125 3.76625 3.29875 4 4 C4.99 4.33 5.98 4.66 7 5 C7 6.98 7 8.96 7 11 C7.639375 11.268125 8.27875 11.53625 8.9375 11.8125 C11 13 11 13 12 16 C11.01 16 10.02 16 9 16 C7.28771335 13.73469504 5.7909964 11.53492555 4.3125 9.125 C3.89677734 8.47402344 3.48105469 7.82304687 3.05273438 7.15234375 C0 2.29002463 0 2.29002463 0 0 Z " fill="#78A1DE" transform="translate(157,285)"/>
<path d="M0 0 C7.22558265 3.27409214 13.70744505 9.52405938 17.3125 16.5625 C18.06937204 19.24595542 17.76728493 20.38902323 17 23 C16.69449219 22.24976563 16.38898438 21.49953125 16.07421875 20.7265625 C12.58241969 12.91673587 8.6333809 8.24550643 2.1953125 2.86328125 C1.47085938 2.24839844 0.74640625 1.63351563 0 1 C0 0.67 0 0.34 0 0 Z " fill="#D4C173" transform="translate(234,175)"/>
<path d="M0 0 C2 0 2 0 3.5 1.25 C7.14176893 5.49873041 7.25880606 9.30512255 7.125 14.75 C7.11597656 15.44738281 7.10695312 16.14476562 7.09765625 16.86328125 C7.07419888 18.57566958 7.03833104 20.28788004 7 22 C6.67 22 6.34 22 6 22 C5.81824219 21.0821875 5.63648438 20.164375 5.44921875 19.21875 C4.08469461 12.55707318 2.63504789 6.27392354 0 0 Z " fill="#5D7DAF" transform="translate(248,186)"/>
<path d="M0 0 C0.66 0.33 1.32 0.66 2 1 C1.01 1.99 0.02 2.98 -1 4 C-0.67 2.68 -0.34 1.36 0 0 Z M-3 4 C-2.34 4.33 -1.68 4.66 -1 5 C-1.86625 6.2684375 -1.86625 6.2684375 -2.75 7.5625 C-4.30627602 9.88316601 -5.71413987 12.24066888 -7.0625 14.6875 C-8.58385186 17.28852092 -9.74208639 19.08077343 -12 21 C-11.74438677 18.6568787 -11.40729228 16.32156597 -11 14 C-10.34 13.67 -9.68 13.34 -9 13 C-8.27840576 11.35636866 -7.60648579 9.68949614 -7 8 C-6.34 8 -5.68 8 -5 8 C-5 7.01 -5 6.02 -5 5 C-4.34 4.67 -3.68 4.34 -3 4 Z " fill="#5A90E8" transform="translate(173,98)"/>
<path d="M0 0 C0.33 0 0.66 0 1 0 C1.125 2.875 1.125 2.875 1 6 C0.34 6.66 -0.32 7.32 -1 8 C-1.52627606 9.90510621 -1.52627606 9.90510621 -1.875 12 C-2.73087639 15.8100304 -2.73087639 15.8100304 -5.125 17.5 C-6.053125 17.7475 -6.053125 17.7475 -7 18 C-6.35534798 13.66695924 -4.81074878 10.13327935 -2.9375 6.1875 C-2.11572266 4.44533203 -2.11572266 4.44533203 -1.27734375 2.66796875 C-0.85582031 1.78753906 -0.43429688 0.90710938 0 0 Z " fill="#8EB0EE" transform="translate(153,126)"/>
<path d="M0 0 C4.53180302 6.79770453 5.47277312 15.96285696 5 24 C4.33333333 22.66666667 3.66666667 21.33333333 3 20 C2.6596875 19.46375 2.319375 18.9275 1.96875 18.375 C0.55919562 14.9193183 0.53116116 11.43280073 0.375 7.75 C0.33632813 7.00492188 0.29765625 6.25984375 0.2578125 5.4921875 C0.16394892 3.6618476 0.08090282 1.83095857 0 0 Z " fill="#84ACE6" transform="translate(474,154)"/>
<path d="M0 0 C0.33 0 0.66 0 1 0 C0.59128562 8.68518048 -1.61864208 16.69293749 -4 25 C-4.33 25 -4.66 25 -5 25 C-5.28865241 19.61182162 -4.81783754 15.97626975 -2.73046875 11.02734375 C-1.55012206 7.75140828 -1.36335952 4.45191539 -1 1 C-0.67 0.67 -0.34 0.34 0 0 Z " fill="#7FA3E0" transform="translate(478,229)"/>
<path d="M0 0 C0.33 0 0.66 0 1 0 C1.2994545 5.78945359 0.85247898 8.8435957 -2 14 C-2.77489243 16.31528465 -3.38505271 18.63481812 -4 21 C-5.6442602 16.94138305 -4.28397525 13.3815237 -3.125 9.375 C-2.93808594 8.694375 -2.75117188 8.01375 -2.55859375 7.3125 C-1.17672294 2.35344587 -1.17672294 2.35344587 0 0 Z " fill="#8DB4EA" transform="translate(145,145)"/>
<path d="M0 0 C6.48472993 0.73690113 12.69239743 2.35318751 19 4 C19 4.33 19 4.66 19 5 C17.10448978 5.05441656 15.2085208 5.09298035 13.3125 5.125 C12.25675781 5.14820313 11.20101563 5.17140625 10.11328125 5.1953125 C6.97748141 4.99858729 4.82354627 4.33057654 2 3 C2 2.34 2 1.68 2 1 C1.34 0.67 0.68 0.34 0 0 Z " fill="#6992D5" transform="translate(253,364)"/>
<path d="M0 0 C0.42410156 0.38671875 0.84820312 0.7734375 1.28515625 1.171875 C6.45164389 5.75926183 11.7623562 9.00593098 18 12 C13.04230204 12.29162929 9.97193147 12.12940055 6 9 C6 8.34 6 7.68 6 7 C5.38125 6.773125 4.7625 6.54625 4.125 6.3125 C1.38589791 4.62070165 0.94975528 3.00755839 0 0 Z " fill="#5779C3" transform="translate(250,292)"/>
<path d="M0 0 C-0.66 0 -1.32 0 -2 0 C-2 0.66 -2 1.32 -2 2 C-11.22551253 6.59225513 -11.22551253 6.59225513 -17 6 C-15.49631918 2.99263836 -13.23800706 2.59983611 -10.1875 1.3125 C-9.12917969 0.85488281 -8.07085937 0.39726563 -6.98046875 -0.07421875 C-4.01633704 -0.99492545 -2.82503443 -1.12864571 0 0 Z " fill="#A5BFF1" transform="translate(249,42)"/>
<path d="M0 0 C0.66 0 1.32 0 2 0 C1.37954537 4.23322844 -0.10523559 7.52290295 -2.0625 11.3125 C-2.61035156 12.38113281 -3.15820312 13.44976562 -3.72265625 14.55078125 C-4.14417969 15.35902344 -4.56570313 16.16726563 -5 17 C-5.33 17 -5.66 17 -6 17 C-6.25 11.375 -6.25 11.375 -4 8 C-3.34 8 -2.68 8 -2 8 C-2 6.68 -2 5.36 -2 4 C-1.34 4 -0.68 4 0 4 C0 2.68 0 1.36 0 0 Z " fill="#82A1DB" transform="translate(464,272)"/>
<path d="M0 0 C0 3 0 3 -1.42578125 4.6484375 C-2.04839844 5.21820313 -2.67101562 5.78796875 -3.3125 6.375 C-6.13725586 9.05737906 -8.04987933 11.6129483 -10 15 C-10.66 15 -11.32 15 -12 15 C-12 15.99 -12 16.98 -12 18 C-12.66 18 -13.32 18 -14 18 C-12.59787748 13.77089533 -10.58624819 11.12217785 -7.5625 7.875 C-6.78003906 7.02679688 -5.99757813 6.17859375 -5.19140625 5.3046875 C-3.48442037 3.50946171 -1.76559133 1.73720562 0 0 Z " fill="#D7E9FD" transform="translate(262,248)"/>
<path d="M0 0 C1.32 0.33 2.64 0.66 4 1 C-2.26547821 6.87388582 -8.91632443 7.2427281 -17.09375 7.0703125 C-17.7228125 7.04710937 -18.351875 7.02390625 -19 7 C-19 6.67 -19 6.34 -19 6 C-17.72125 5.87625 -16.4425 5.7525 -15.125 5.625 C-11.65209064 5.30957601 -11.65209064 5.30957601 -9 3 C-7.845 3.020625 -6.69 3.04125 -5.5 3.0625 C-4.345 3.041875 -3.19 3.02125 -2 3 C-1.34 2.01 -0.68 1.02 0 0 Z " fill="#E7BE3C" transform="translate(236,233)"/>
<path d="M0 0 C3.62276315 1.3255581 6.63505348 2.94346955 9.8125 5.125 C10.60269531 5.66382813 11.39289063 6.20265625 12.20703125 6.7578125 C12.79871094 7.16773438 13.39039063 7.57765625 14 8 C11.4254716 9.2872642 9.85291355 9.34791629 7 9 C5.02389614 6.95575462 4 5.8823175 4 3 C3.01 3 2.02 3 1 3 C0.67 2.01 0.34 1.02 0 0 Z " fill="#93B9EF" transform="translate(396,54)"/>
<path d="M0 0 C2.24587654 1.08134796 4.33545396 2.21503459 6.4375 3.5625 C9.02061794 5.01156616 11.08759012 5.58394145 14 6 C14.33 6.99 14.66 7.98 15 9 C11.35500926 9.3328035 9.53282385 9.35766004 6.4453125 7.28515625 C5.67960938 6.55167969 4.91390625 5.81820312 4.125 5.0625 C3.34382812 4.33160156 2.56265625 3.60070312 1.7578125 2.84765625 C0 1 0 1 0 0 Z " fill="#D2B54C" transform="translate(192,229)"/>
<path d="M0 0 C3.23076223 2.07691858 6.09926259 4.08685476 9 6.625 C12.00058944 9.00046664 14.32951658 10.03868291 18 11 C16.4375 11.75 16.4375 11.75 14 12 C12.19628174 11.06593161 10.3935249 10.12083931 8.671875 9.04296875 C6.95193905 7.9161814 6.95193905 7.9161814 4.75 7 C2.4834627 5.70483583 1.37379324 4.19806919 0 2 C0 1.34 0 0.68 0 0 Z " fill="#607498" transform="translate(189,228)"/>
<path d="M0 0 C7.09406894 0.58476056 14.01563899 1.63233995 21 3 C17.48545801 5.343028 16.15708693 4.96430359 12.14648438 4.20703125 C11.41751953 4.05621094 10.68855469 3.90539063 9.9375 3.75 C9.20466797 3.61464844 8.47183594 3.47929688 7.71679688 3.33984375 C2.26936607 2.26936607 2.26936607 2.26936607 0 0 Z " fill="#A3C2EE" transform="translate(328,31)"/>
<path d="M0 0 C0 4.90312435 -3.70199631 7.61341357 -7 11 C-8.62541044 12.38332804 -10.27385413 13.74462118 -12 15 C-12.66 14.67 -13.32 14.34 -14 14 C-9.38 9.38 -4.76 4.76 0 0 Z " fill="#D6E8FD" transform="translate(307,203)"/>
<path d="M0 0 C0.66 0 1.32 0 2 0 C2 0.66 2 1.32 2 2 C2.66 2.33 3.32 2.66 4 3 C-0.75 7.875 -0.75 7.875 -3 9 C-3.75 7.3125 -3.75 7.3125 -4 5 C-2.1875 2.25 -2.1875 2.25 0 0 Z " fill="#518AE3" transform="translate(372,132)"/>
<path d="M0 0 C0 3.88939843 -1.19737718 4.7649445 -3.75 7.625 C-4.44609375 8.42164063 -5.1421875 9.21828125 -5.859375 10.0390625 C-8.01014951 12.00929755 -9.15547268 12.6284176 -12 13 C-8.19524578 8.43969176 -4.25030379 4.14910608 0 0 Z " fill="#DAEBFD" transform="translate(292,218)"/>
<path d="M0 0 C0 3.96018245 -1.18721244 6.5039097 -3 10 C-5.1875 10.9375 -5.1875 10.9375 -7 11 C-6.68232368 5.59950264 -3.80003673 3.47662935 0 0 Z " fill="#8FB3EE" transform="translate(183,83)"/>
<path d="M0 0 C0 3.75856468 -0.77135387 4.98054395 -3 8 C-5.25170354 9.83638933 -7.56899513 11.39461943 -10 13 C-10.66 12.67 -11.32 12.34 -12 12 C-8.04 8.04 -4.08 4.08 0 0 Z " fill="#D7E8FC" transform="translate(327,183)"/>
<path d="M0 0 C0.8125 1.625 0.8125 1.625 1 4 C-1.3125 7.25 -1.3125 7.25 -4 10 C-4.66 10 -5.32 10 -6 10 C-4.52307692 3.47692308 -4.52307692 3.47692308 -1.875 1.0625 C-1.25625 0.711875 -0.6375 0.36125 0 0 Z " fill="#F0C239" transform="translate(195,181)"/>
<path d="M0 0 C0.66 0 1.32 0 2 0 C2 0.99 2 1.98 2 3 C2.66 3 3.32 3 4 3 C5.5078125 4.96875 5.5078125 4.96875 7.125 7.5 C7.66382813 8.3353125 8.20265625 9.170625 8.7578125 10.03125 C9.37269531 11.00578125 9.37269531 11.00578125 10 12 C9.67 12.66 9.34 13.32 9 14 C4.70303122 10.1804722 2.21894849 6.3056422 0 1 C0 0.67 0 0.34 0 0 Z " fill="#95B8EA" transform="translate(444,96)"/>
<path d="M0 0 C2.64 0.33 5.28 0.66 8 1 C8 1.99 8 2.98 8 4 C8.66 4 9.32 4 10 4 C10 5.65 10 7.3 10 9 C8.70391053 8.06862408 7.41328368 7.1296434 6.125 6.1875 C5.40570313 5.66542969 4.68640625 5.14335937 3.9453125 4.60546875 C2 3 2 3 0 0 Z " fill="#6F92BD" transform="translate(236,175)"/>
<path d="M0 0 C0.33 0.66 0.66 1.32 1 2 C1.66 2.33 2.32 2.66 3 3 C1.02 7.455 1.02 7.455 -1 12 C-1.33 12 -1.66 12 -2 12 C-2.05422947 10.5629191 -2.09289723 9.12524538 -2.125 7.6875 C-2.14820313 6.88699219 -2.17140625 6.08648437 -2.1953125 5.26171875 C-2 3 -2 3 0 0 Z " fill="#5B8DEB" transform="translate(148,141)"/>
<path d="M0 0 C0.99 0.495 0.99 0.495 2 1 C2 1.66 2 2.32 2 3 C2.66 3 3.32 3 4 3 C4.33 3.99 4.66 4.98 5 6 C6.65 6 8.3 6 10 6 C9.67 7.65 9.34 9.3 9 11 C4.79827151 8.47896291 2.11893556 6.47330841 0 2 C0 1.34 0 0.68 0 0 Z " fill="#EBBF37" transform="translate(187,220)"/>
<path d="M0 0 C1.32 0 2.64 0 4 0 C4 0.99 4 1.98 4 3 C2.71349294 3.69710731 1.42059335 4.38242876 0.125 5.0625 C-0.95394531 5.63677734 -0.95394531 5.63677734 -2.0546875 6.22265625 C-2.69664062 6.47917969 -3.33859375 6.73570312 -4 7 C-4.66 6.67 -5.32 6.34 -6 6 C-4.625 4.5 -4.625 4.5 -3 3 C-2.34 3 -1.68 3 -1 3 C-0.67 2.01 -0.34 1.02 0 0 Z " fill="#7D9DDC" transform="translate(389,351)"/>
<path d="M0 0 C3.79039882 0.52644428 6.21815268 1.31750437 9 4 C9.75 6.1875 9.75 6.1875 10 8 C6.05205855 6.32971708 3.18203882 3.8204435 0 1 C0 0.67 0 0.34 0 0 Z " fill="#82A5DD" transform="translate(196,333)"/>
<path d="M0 0 C0.309375 0.639375 0.61875 1.27875 0.9375 1.9375 C1.8345163 3.93610821 1.8345163 3.93610821 3 5 C3.07258946 7.18639453 3.08373783 9.37500389 3.0625 11.5625 C3.05347656 12.76003906 3.04445313 13.95757812 3.03515625 15.19140625 C3.02355469 16.11824219 3.01195312 17.04507813 3 18 C2.67 18 2.34 18 2 18 C0.77100654 11.93184478 -0.27560214 6.20104812 0 0 Z " fill="#6190DC" transform="translate(477,174)"/>
<path d="M0 0 C0.33 0 0.66 0 1 0 C0.88490339 1.41750563 0.75746342 2.83401169 0.625 4.25 C0.55539062 5.03890625 0.48578125 5.8278125 0.4140625 6.640625 C-0.21959878 10.25129873 -1.41641138 12.41641138 -4 15 C-4 14.34 -4 13.68 -4 13 C-4.66 12.67 -5.32 12.34 -6 12 C-5.38125 11.13375 -4.7625 10.2675 -4.125 9.375 C-2.15345216 6.24371814 -1.01033009 3.53615531 0 0 Z " fill="#5C7BC4" transform="translate(425,157)"/>
<path d="M0 0 C0.66 0 1.32 0 2 0 C0.23387097 7.94758065 0.23387097 7.94758065 -3.125 10.8125 C-3.74375 11.204375 -4.3625 11.59625 -5 12 C-4.71125 11.484375 -4.4225 10.96875 -4.125 10.4375 C-2.71434409 7.38107885 -1.91545726 4.23461565 -1 1 C-0.67 0.67 -0.34 0.34 0 0 Z " fill="#5690EB" transform="translate(156,124)"/>
<path d="M0 0 C0.66 0.33 1.32 0.66 2 1 C0.33333333 2.66666667 -1.33333333 4.33333333 -3 6 C-3.53625 6.598125 -4.0725 7.19625 -4.625 7.8125 C-6 9 -6 9 -9 9 C-7.48328036 4.44984107 -3.83108947 2.49942736 0 0 Z " fill="#A4C3EF" transform="translate(211,59)"/>
<path d="M0 0 C5.99291003 0.41330414 9.25036599 1.31903365 14 5 C12 6 12 6 9.1796875 5.22265625 C8.08914063 4.83980469 6.99859375 4.45695312 5.875 4.0625 C4.77929688 3.68222656 3.68359375 3.30195312 2.5546875 2.91015625 C1.71164062 2.60980469 0.86859375 2.30945312 0 2 C0 1.34 0 0.68 0 0 Z " fill="#8CB3ED" transform="translate(382,48)"/>
<path d="M0 0 C1.98 0 3.96 0 6 0 C2.98552165 2.57075841 0.64020229 3.52207066 -3.25 4.1875 C-4.58804687 4.42533203 -4.58804687 4.42533203 -5.953125 4.66796875 C-6.96632813 4.83232422 -6.96632813 4.83232422 -8 5 C-7.67 4.01 -7.34 3.02 -7 2 C-4.69 2 -2.38 2 0 2 C0 1.34 0 0.68 0 0 Z " fill="#7BA1D9" transform="translate(364,363)"/>
<path d="M0 0 C-2.22189824 2.22189824 -4.08482708 2.92598892 -7 4 C-7.66 3.34 -8.32 2.68 -9 2 C-9 1.01 -9 0.02 -9 -1 C-5.23375329 -2.25541557 -3.62811066 -1.37061958 0 0 Z " fill="#407DE3" transform="translate(412,339)"/>
<path d="M0 0 C0.99 0.33 1.98 0.66 3 1 C2.01 1.495 2.01 1.495 1 2 C1 2.66 1 3.32 1 4 C1.99 4 2.98 4 4 4 C4 4.66 4 5.32 4 6 C1.03 6 -1.94 6 -5 6 C-5.33 5.34 -5.66 4.68 -6 4 C-4.35 3.67 -2.7 3.34 -1 3 C-0.67 2.01 -0.34 1.02 0 0 Z " fill="#3F6ED2" transform="translate(292,298)"/>
<path d="M0 0 C2 2 2 2 2 4.375 C0.6042509 8.03884139 -1.67734418 9.09124027 -5 11 C-4.731875 10.484375 -4.46375 9.96875 -4.1875 9.4375 C-2.67650593 6.33598585 -1.34427274 3.17737194 0 0 Z " fill="#3F70DB" transform="translate(427,159)"/>
<path d="M0 0 C0.33 0.66 0.66 1.32 1 2 C1.66 2 2.32 2 3 2 C3 2.66 3 3.32 3 4 C3.99 4.33 4.98 4.66 6 5 C5.67 5.99 5.34 6.98 5 8 C4.01 8.33 3.02 8.66 2 9 C0.50178941 5.62902617 0 3.79557881 0 0 Z " fill="#3F75DE" transform="translate(426,140)"/>
<path d="M0 0 C1.98 0.99 1.98 0.99 4 2 C4 2.66 4 3.32 4 4 C4.99 4.33 5.98 4.66 7 5 C7.6875 7.0625 7.6875 7.0625 8 9 C7.01 8.67 6.02 8.34 5 8 C5 7.34 5 6.68 5 6 C4.360625 5.7525 3.72125 5.505 3.0625 5.25 C1 4 1 4 0.25 1.875 C0.1675 1.25625 0.085 0.6375 0 0 Z " fill="#87A7DE" transform="translate(188,324)"/>
<path d="M0 0 C0.33 0 0.66 0 1 0 C1 4.29 1 8.58 1 13 C1.66 13 2.32 13 3 13 C3 14.98 3 16.96 3 19 C0.43238452 16.38521048 0.0043655 15.05471424 -0.29296875 11.328125 C-0.27316751 9.96843965 -0.23759202 8.6089066 -0.1875 7.25 C-0.17396484 6.55261719 -0.16042969 5.85523438 -0.14648438 5.13671875 C-0.1112945 3.42414459 -0.05749155 1.71197059 0 0 Z " fill="#DDBD4E" transform="translate(184,201)"/>
<path d="M0 0 C1.32 0.66 2.64 1.32 4 2 C2.8572081 3.16964602 1.71068285 4.33564556 0.5625 5.5 C-0.07558594 6.1496875 -0.71367187 6.799375 -1.37109375 7.46875 C-3 9 -3 9 -4 9 C-4 7.35 -4 5.7 -4 4 C-2.35 3.67 -0.7 3.34 1 3 C0.67 2.01 0.34 1.02 0 0 Z " fill="#5588DA" transform="translate(303,202)"/>
<path d="M0 0 C-2.35968744 2.09749995 -3.54616994 2.96905704 -6.75 3.1875 C-7.86375 3.0946875 -7.86375 3.0946875 -9 3 C-9 3.66 -9 4.32 -9 5 C-9.99 4.67 -10.98 4.34 -12 4 C-11.34 4 -10.68 4 -10 4 C-9.79375 3.360625 -9.5875 2.72125 -9.375 2.0625 C-8 0 -8 0 -5 -0.8125 C-2 -1 -2 -1 0 0 Z " fill="#6094EA" transform="translate(240,48)"/>
<path d="M0 0 C1.98 0 3.96 0 6 0 C5.3125 1.9375 5.3125 1.9375 4 4 C1.375 4.75 1.375 4.75 -1 5 C-0.67 3.35 -0.34 1.7 0 0 Z " fill="#648BDA" transform="translate(394,347)"/>
<path d="M0 0 C3.48749314 2.78999451 6.50157221 5.25235831 9 9 C8.67 9.66 8.34 10.32 8 11 C4.9561471 9.47807355 3.29597958 8.59195917 1.75 5.5 C1.5025 4.675 1.255 3.85 1 3 C0.67 2.01 0.34 1.02 0 0 Z " fill="#A3C2EF" transform="translate(434,84)"/>
<path d="M0 0 C1.875 0.625 1.875 0.625 4 2 C5.25 5.125 5.25 5.125 6 8 C3.5625 6.8125 3.5625 6.8125 1 5 C0.1875 2.3125 0.1875 2.3125 0 0 Z " fill="#81A8E7" transform="translate(410,63)"/>
<path d="M0 0 C-1.26418246 0.69965443 -2.53665402 1.38434763 -3.8125 2.0625 C-4.52019531 2.44535156 -5.22789062 2.82820313 -5.95703125 3.22265625 C-8 4 -8 4 -11 3 C-7.56065558 -0.95524608 -4.91824601 -1.35534128 0 0 Z " fill="#7C9ED8" transform="translate(382,359)"/>
<path d="M0 0 C1.65 0 3.3 0 5 0 C4.6875 2.375 4.6875 2.375 4 5 C3.01 5.66 2.02 6.32 1 7 C0.67 4.69 0.34 2.38 0 0 Z " fill="#5789DC" transform="translate(452,288)"/>
<path d="M0 0 C0.33 0.66 0.66 1.32 1 2 C0.22265625 4.1640625 0.22265625 4.1640625 -0.9375 6.625 C-1.31777344 7.44226563 -1.69804687 8.25953125 -2.08984375 9.1015625 C-2.39019531 9.72804688 -2.69054687 10.35453125 -3 11 C-3.33 11 -3.66 11 -4 11 C-3.38461538 3.49230769 -3.38461538 3.49230769 -1.4375 1 C-0.963125 0.67 -0.48875 0.34 0 0 Z " fill="#7E9EDC" transform="translate(470,261)"/>
<path d="M0 0 C0.99 0.33 1.98 0.66 3 1 C0.36 3.64 -2.28 6.28 -5 9 C-5.33 8.01 -5.66 7.02 -6 6 C-5.34 6 -4.68 6 -4 6 C-3.71125 5.38125 -3.4225 4.7625 -3.125 4.125 C-2 2 -2 2 0 0 Z " fill="#D5E5F7" transform="translate(391,195)"/>
<path d="M0 0 C1.32 0 2.64 0 4 0 C4 0.66 4 1.32 4 2 C5.65 2.33 7.3 2.66 9 3 C7.6875 4.5 7.6875 4.5 6 6 C5.01 6 4.02 6 3 6 C2.87625 5.195625 2.7525 4.39125 2.625 3.5625 C2.315625 2.2940625 2.315625 2.2940625 2 1 C1.34 0.67 0.68 0.34 0 0 Z " fill="#5A90EC" transform="translate(362,40)"/>
<path d="M0 0 C0.33 0.66 0.66 1.32 1 2 C1.66 2.33 2.32 2.66 3 3 C0.03 5.475 0.03 5.475 -3 8 C-3.33 6.35 -3.66 4.7 -4 3 C-3.67 3.66 -3.34 4.32 -3 5 C-2.34 5 -1.68 5 -1 5 C-1.33 4.01 -1.66 3.02 -2 2 C-1.34 1.34 -0.68 0.68 0 0 Z " fill="#5088DF" transform="translate(359,146)"/>
<path d="M0 0 C1.98 0 3.96 0 6 0 C6 0.66 6 1.32 6 2 C6.99 2.33 7.98 2.66 9 3 C8.67 3.66 8.34 4.32 8 5 C4.62496331 3.8141763 2.35277269 2.72426311 0 0 Z " fill="#7EA3DE" transform="translate(218,349)"/>
<path d="M0 0 C0.99 0.33 1.98 0.66 3 1 C-0.465 3.97 -0.465 3.97 -4 7 C-4.33 5.68 -4.66 4.36 -5 3 C-3.35 2.67 -1.7 2.34 0 2 C0 1.34 0 0.68 0 0 Z " fill="#D6E4F4" transform="translate(313,273)"/>
<path d="M0 0 C0 3 0 3 -1 6 C-1.66 6 -2.32 6 -3 6 C-3 6.66 -3 7.32 -3 8 C-4.32 7.67 -5.64 7.34 -7 7 C-4.69 4.69 -2.38 2.38 0 0 Z " fill="#7A7F83" transform="translate(246,227)"/>
<path d="M0 0 C1.32 0 2.64 0 4 0 C4 0.99 4 1.98 4 3 C3.34 3 2.68 3 2 3 C2 3.66 2 4.32 2 5 C0.68 5.33 -0.64 5.66 -2 6 C-1.34 4.02 -0.68 2.04 0 0 Z " fill="#5B84D6" transform="translate(427,322)"/>
<path d="M0 0 C1.32 0.33 2.64 0.66 4 1 C-0.625 5 -0.625 5 -4 5 C-4.33 4.01 -4.66 3.02 -5 2 C-3.35 2 -1.7 2 0 2 C0 1.34 0 0.68 0 0 Z " fill="#4570D4" transform="translate(228,241)"/>
<path d="M0 0 C0.33 0.66 0.66 1.32 1 2 C0 5 0 5 -2 6 C-2.2165625 6.99 -2.2165625 6.99 -2.4375 8 C-2.623125 8.66 -2.80875 9.32 -3 10 C-3.99 10.33 -4.98 10.66 -6 11 C-5.38722388 8.03824877 -4.74627478 6.61941217 -3 4 C-2.34 4 -1.68 4 -1 4 C-0.67 2.68 -0.34 1.36 0 0 Z " fill="#4A74BB" transform="translate(251,222)"/>
<path d="M0 0 C2.97069541 2.54631035 4.4775751 5.42230149 6 9 C5.67 9.66 5.34 10.32 5 11 C4.67 9.68 4.34 8.36 4 7 C3.34 7 2.68 7 2 7 C0 4 0 4 0 0 Z " fill="#98BEEE" transform="translate(457,115)"/>
<path d="M0 0 C1.875 0.625 1.875 0.625 4 2 C5.25 5.125 5.25 5.125 6 8 C5.34 8.66 4.68 9.32 4 10 C0 3.375 0 3.375 0 0 Z " fill="#8CADE6" transform="translate(152,275)"/>
<path d="M0 0 C0.33 0 0.66 0 1 0 C1.1953125 6.0546875 1.1953125 6.0546875 1 8 C0.34 8.66 -0.32 9.32 -1 10 C-1.9765625 3.9453125 -1.9765625 3.9453125 -2 2 C-1.34 1.34 -0.68 0.68 0 0 Z " fill="#447DDB" transform="translate(476,230)"/>
<path d="M0 0 C0.66 0.33 1.32 0.66 2 1 C-1.465 3.97 -1.465 3.97 -5 7 C-5 5.68 -5 4.36 -5 3 C-2.625 1.1875 -2.625 1.1875 0 0 Z " fill="#5785D6" transform="translate(288,220)"/>
<path d="M0 0 C0.33 0.66 0.66 1.32 1 2 C1.66 2.33 2.32 2.66 3 3 C0.03 5.475 0.03 5.475 -3 8 C-3 6.68 -3 5.36 -3 4 C-2.34 3.67 -1.68 3.34 -1 3 C-0.67 2.01 -0.34 1.02 0 0 Z " fill="#5488DA" transform="translate(319,186)"/>
<path d="M0 0 C0.99 0.495 0.99 0.495 2 1 C2.73075648 3.3140622 3.40138258 5.64828869 4 8 C2.68 7.34 1.36 6.68 0 6 C0 4.02 0 2.04 0 0 Z " fill="#8FB5EB" transform="translate(463,126)"/>
<path d="M0 0 C0.33 0 0.66 0 1 0 C1 1.98 1 3.96 1 6 C-0.98 6.99 -0.98 6.99 -3 8 C-1.125 1.125 -1.125 1.125 0 0 Z " fill="#97B9EA" transform="translate(153,126)"/>
<path d="M0 0 C-1.125 1.5 -1.125 1.5 -3 3 C-6.1875 3.1875 -6.1875 3.1875 -9 3 C-7.14340032 -0.71319936 -3.69365381 -0.09982848 0 0 Z " fill="#9AB9F0" transform="translate(241,45)"/>
<path d="M0 0 C1.65 0 3.3 0 5 0 C4.1875 1.9375 4.1875 1.9375 3 4 C2.01 4.33 1.02 4.66 0 5 C0 3.35 0 1.7 0 0 Z " fill="#6E96D9" transform="translate(417,331)"/>
<path d="M0 0 C1.32 0.33 2.64 0.66 4 1 C2.02 3.31 0.04 5.62 -2 8 C-2 4.79604584 -1.25664978 2.90600261 0 0 Z " fill="#6F90B8" transform="translate(193,177)"/>
<path d="M0 0 C0.66 0.99 1.32 1.98 2 3 C-0.375 4.5625 -0.375 4.5625 -3 6 C-3.66 5.67 -4.32 5.34 -5 5 C-4.01 4.67 -3.02 4.34 -2 4 C-0.79117904 1.99983534 -0.79117904 1.99983534 0 0 Z " fill="#DBECFB" transform="translate(377,133)"/>
</svg>
